<mxfile host="Electron" modified="2024-07-21T11:47:32.119Z" agent="Mozilla/5.0 (Windows NT 10.0; Win64; x64) AppleWebKit/537.36 (KHTML, like Gecko) draw.io/24.6.4 Chrome/124.0.6367.207 Electron/30.0.6 Safari/537.36" etag="hywbsYguCGpcTJXKrbci" version="24.6.4" type="device">
  <diagram name="Page-1" id="6aSK1fWJdnHXR6AfyIOO">
    <mxGraphModel dx="757" dy="725" grid="1" gridSize="10" guides="1" tooltips="1" connect="1" arrows="1" fold="1" page="1" pageScale="1" pageWidth="827" pageHeight="1169" math="0" shadow="0">
      <root>
        <mxCell id="0" />
        <mxCell id="1" parent="0" />
        <mxCell id="xy4yI9VRdFkk8h6QiSj7-1" value="" style="rounded=0;whiteSpace=wrap;html=1;fillColor=#E0E0E0;strokeColor=none;fontColor=#333333;" vertex="1" parent="1">
          <mxGeometry x="80" y="70" width="360" height="410" as="geometry" />
        </mxCell>
        <mxCell id="xy4yI9VRdFkk8h6QiSj7-2" value="" style="group" vertex="1" connectable="0" parent="1">
          <mxGeometry x="350" y="80" width="80.5" height="50" as="geometry" />
        </mxCell>
        <mxCell id="xy4yI9VRdFkk8h6QiSj7-3" value="" style="rounded=0;whiteSpace=wrap;html=1;strokeColor=none;" vertex="1" parent="xy4yI9VRdFkk8h6QiSj7-2">
          <mxGeometry width="80" height="50" as="geometry" />
        </mxCell>
        <mxCell id="xy4yI9VRdFkk8h6QiSj7-4" value="" style="rounded=0;whiteSpace=wrap;html=1;fillColor=#000000;strokeColor=none;" vertex="1" parent="xy4yI9VRdFkk8h6QiSj7-2">
          <mxGeometry x="5.5" width="1" height="50" as="geometry" />
        </mxCell>
        <mxCell id="xy4yI9VRdFkk8h6QiSj7-5" value="" style="rounded=0;whiteSpace=wrap;html=1;fillColor=#000000;strokeColor=none;" vertex="1" parent="xy4yI9VRdFkk8h6QiSj7-2">
          <mxGeometry x="15.5" width="1" height="50" as="geometry" />
        </mxCell>
        <mxCell id="xy4yI9VRdFkk8h6QiSj7-6" value="" style="rounded=0;whiteSpace=wrap;html=1;fillColor=#000000;strokeColor=none;" vertex="1" parent="xy4yI9VRdFkk8h6QiSj7-2">
          <mxGeometry x="25.5" width="1" height="50" as="geometry" />
        </mxCell>
        <mxCell id="xy4yI9VRdFkk8h6QiSj7-7" value="" style="rounded=0;whiteSpace=wrap;html=1;fillColor=#000000;strokeColor=none;" vertex="1" parent="xy4yI9VRdFkk8h6QiSj7-2">
          <mxGeometry x="24.5" width="1" height="50" as="geometry" />
        </mxCell>
        <mxCell id="xy4yI9VRdFkk8h6QiSj7-8" value="" style="rounded=0;whiteSpace=wrap;html=1;fillColor=#000000;strokeColor=none;" vertex="1" parent="xy4yI9VRdFkk8h6QiSj7-2">
          <mxGeometry x="34.5" width="1" height="50" as="geometry" />
        </mxCell>
        <mxCell id="xy4yI9VRdFkk8h6QiSj7-9" value="" style="rounded=0;whiteSpace=wrap;html=1;fillColor=#000000;strokeColor=none;" vertex="1" parent="xy4yI9VRdFkk8h6QiSj7-2">
          <mxGeometry x="44.5" width="1" height="50" as="geometry" />
        </mxCell>
        <mxCell id="xy4yI9VRdFkk8h6QiSj7-10" value="" style="rounded=0;whiteSpace=wrap;html=1;fillColor=#000000;strokeColor=none;" vertex="1" parent="xy4yI9VRdFkk8h6QiSj7-2">
          <mxGeometry x="39.5" width="1" height="50" as="geometry" />
        </mxCell>
        <mxCell id="xy4yI9VRdFkk8h6QiSj7-11" value="" style="rounded=0;whiteSpace=wrap;html=1;fillColor=#000000;strokeColor=none;" vertex="1" parent="xy4yI9VRdFkk8h6QiSj7-2">
          <mxGeometry x="38.5" width="1" height="50" as="geometry" />
        </mxCell>
        <mxCell id="xy4yI9VRdFkk8h6QiSj7-12" value="" style="rounded=0;whiteSpace=wrap;html=1;fillColor=#000000;strokeColor=none;" vertex="1" parent="xy4yI9VRdFkk8h6QiSj7-2">
          <mxGeometry x="48.5" width="1" height="50" as="geometry" />
        </mxCell>
        <mxCell id="xy4yI9VRdFkk8h6QiSj7-13" value="" style="rounded=0;whiteSpace=wrap;html=1;fillColor=#000000;strokeColor=none;" vertex="1" parent="xy4yI9VRdFkk8h6QiSj7-2">
          <mxGeometry x="42.5" width="1" height="50" as="geometry" />
        </mxCell>
        <mxCell id="xy4yI9VRdFkk8h6QiSj7-14" value="" style="rounded=0;whiteSpace=wrap;html=1;fillColor=#000000;strokeColor=none;" vertex="1" parent="xy4yI9VRdFkk8h6QiSj7-2">
          <mxGeometry x="52.5" width="1" height="50" as="geometry" />
        </mxCell>
        <mxCell id="xy4yI9VRdFkk8h6QiSj7-15" value="" style="rounded=0;whiteSpace=wrap;html=1;fillColor=#000000;strokeColor=none;" vertex="1" parent="xy4yI9VRdFkk8h6QiSj7-2">
          <mxGeometry x="51.5" width="1" height="50" as="geometry" />
        </mxCell>
        <mxCell id="xy4yI9VRdFkk8h6QiSj7-16" value="" style="rounded=0;whiteSpace=wrap;html=1;fillColor=#000000;strokeColor=none;" vertex="1" parent="xy4yI9VRdFkk8h6QiSj7-2">
          <mxGeometry x="61.5" width="1" height="50" as="geometry" />
        </mxCell>
        <mxCell id="xy4yI9VRdFkk8h6QiSj7-17" value="" style="rounded=0;whiteSpace=wrap;html=1;fillColor=#000000;strokeColor=none;" vertex="1" parent="xy4yI9VRdFkk8h6QiSj7-2">
          <mxGeometry x="66.5" width="1" height="50" as="geometry" />
        </mxCell>
        <mxCell id="xy4yI9VRdFkk8h6QiSj7-18" value="" style="rounded=0;whiteSpace=wrap;html=1;fillColor=#000000;strokeColor=none;" vertex="1" parent="xy4yI9VRdFkk8h6QiSj7-2">
          <mxGeometry x="65.5" width="1" height="50" as="geometry" />
        </mxCell>
        <mxCell id="xy4yI9VRdFkk8h6QiSj7-19" value="" style="rounded=0;whiteSpace=wrap;html=1;fillColor=#000000;strokeColor=none;" vertex="1" parent="xy4yI9VRdFkk8h6QiSj7-2">
          <mxGeometry x="6.5" width="1" height="50" as="geometry" />
        </mxCell>
        <mxCell id="xy4yI9VRdFkk8h6QiSj7-20" value="" style="rounded=0;whiteSpace=wrap;html=1;fillColor=#000000;strokeColor=none;" vertex="1" parent="xy4yI9VRdFkk8h6QiSj7-2">
          <mxGeometry x="16.5" width="1" height="50" as="geometry" />
        </mxCell>
        <mxCell id="xy4yI9VRdFkk8h6QiSj7-21" value="" style="rounded=0;whiteSpace=wrap;html=1;fillColor=#000000;strokeColor=none;" vertex="1" parent="xy4yI9VRdFkk8h6QiSj7-2">
          <mxGeometry x="11.5" width="1" height="50" as="geometry" />
        </mxCell>
        <mxCell id="xy4yI9VRdFkk8h6QiSj7-22" value="" style="rounded=0;whiteSpace=wrap;html=1;fillColor=#000000;strokeColor=none;" vertex="1" parent="xy4yI9VRdFkk8h6QiSj7-2">
          <mxGeometry x="10.5" width="1" height="50" as="geometry" />
        </mxCell>
        <mxCell id="xy4yI9VRdFkk8h6QiSj7-23" value="" style="rounded=0;whiteSpace=wrap;html=1;fillColor=#000000;strokeColor=none;" vertex="1" parent="xy4yI9VRdFkk8h6QiSj7-2">
          <mxGeometry x="20.5" width="1" height="50" as="geometry" />
        </mxCell>
        <mxCell id="xy4yI9VRdFkk8h6QiSj7-24" value="" style="rounded=0;whiteSpace=wrap;html=1;fillColor=#000000;strokeColor=none;" vertex="1" parent="xy4yI9VRdFkk8h6QiSj7-2">
          <mxGeometry x="14.5" width="1" height="50" as="geometry" />
        </mxCell>
        <mxCell id="xy4yI9VRdFkk8h6QiSj7-25" value="" style="rounded=0;whiteSpace=wrap;html=1;fillColor=#000000;strokeColor=none;" vertex="1" parent="xy4yI9VRdFkk8h6QiSj7-2">
          <mxGeometry x="26.5" width="1" height="50" as="geometry" />
        </mxCell>
        <mxCell id="xy4yI9VRdFkk8h6QiSj7-26" value="" style="rounded=0;whiteSpace=wrap;html=1;fillColor=#000000;strokeColor=none;" vertex="1" parent="xy4yI9VRdFkk8h6QiSj7-2">
          <mxGeometry x="36.5" width="1" height="50" as="geometry" />
        </mxCell>
        <mxCell id="xy4yI9VRdFkk8h6QiSj7-27" value="" style="rounded=0;whiteSpace=wrap;html=1;fillColor=#000000;strokeColor=none;" vertex="1" parent="xy4yI9VRdFkk8h6QiSj7-2">
          <mxGeometry x="35.5" width="1" height="50" as="geometry" />
        </mxCell>
        <mxCell id="xy4yI9VRdFkk8h6QiSj7-28" value="" style="rounded=0;whiteSpace=wrap;html=1;fillColor=#000000;strokeColor=none;" vertex="1" parent="xy4yI9VRdFkk8h6QiSj7-2">
          <mxGeometry x="27.5" width="1" height="50" as="geometry" />
        </mxCell>
        <mxCell id="xy4yI9VRdFkk8h6QiSj7-29" value="" style="rounded=0;whiteSpace=wrap;html=1;fillColor=#000000;strokeColor=none;" vertex="1" parent="xy4yI9VRdFkk8h6QiSj7-2">
          <mxGeometry x="22.5" width="1" height="50" as="geometry" />
        </mxCell>
        <mxCell id="xy4yI9VRdFkk8h6QiSj7-30" value="" style="rounded=0;whiteSpace=wrap;html=1;fillColor=#000000;strokeColor=none;" vertex="1" parent="xy4yI9VRdFkk8h6QiSj7-2">
          <mxGeometry x="31.5" width="1" height="50" as="geometry" />
        </mxCell>
        <mxCell id="xy4yI9VRdFkk8h6QiSj7-31" value="" style="rounded=0;whiteSpace=wrap;html=1;fillColor=#000000;strokeColor=none;" vertex="1" parent="xy4yI9VRdFkk8h6QiSj7-2">
          <mxGeometry x="25.5" width="1" height="50" as="geometry" />
        </mxCell>
        <mxCell id="xy4yI9VRdFkk8h6QiSj7-32" value="" style="rounded=0;whiteSpace=wrap;html=1;fillColor=#000000;strokeColor=none;" vertex="1" parent="xy4yI9VRdFkk8h6QiSj7-2">
          <mxGeometry x="54.5" width="1" height="50" as="geometry" />
        </mxCell>
        <mxCell id="xy4yI9VRdFkk8h6QiSj7-33" value="" style="rounded=0;whiteSpace=wrap;html=1;fillColor=#000000;strokeColor=none;" vertex="1" parent="xy4yI9VRdFkk8h6QiSj7-2">
          <mxGeometry x="58.5" width="1" height="50" as="geometry" />
        </mxCell>
        <mxCell id="xy4yI9VRdFkk8h6QiSj7-34" value="" style="rounded=0;whiteSpace=wrap;html=1;fillColor=#000000;strokeColor=none;" vertex="1" parent="xy4yI9VRdFkk8h6QiSj7-2">
          <mxGeometry x="62.5" width="1" height="50" as="geometry" />
        </mxCell>
        <mxCell id="xy4yI9VRdFkk8h6QiSj7-35" value="" style="rounded=0;whiteSpace=wrap;html=1;fillColor=#000000;strokeColor=none;" vertex="1" parent="xy4yI9VRdFkk8h6QiSj7-2">
          <mxGeometry x="61.5" width="1" height="50" as="geometry" />
        </mxCell>
        <mxCell id="xy4yI9VRdFkk8h6QiSj7-36" value="" style="rounded=0;whiteSpace=wrap;html=1;fillColor=#000000;strokeColor=none;" vertex="1" parent="xy4yI9VRdFkk8h6QiSj7-2">
          <mxGeometry x="61.5" width="1" height="50" as="geometry" />
        </mxCell>
        <mxCell id="xy4yI9VRdFkk8h6QiSj7-37" value="" style="rounded=0;whiteSpace=wrap;html=1;fillColor=#000000;strokeColor=none;" vertex="1" parent="xy4yI9VRdFkk8h6QiSj7-2">
          <mxGeometry x="56.5" width="1" height="50" as="geometry" />
        </mxCell>
        <mxCell id="xy4yI9VRdFkk8h6QiSj7-38" value="" style="rounded=0;whiteSpace=wrap;html=1;fillColor=#000000;strokeColor=none;" vertex="1" parent="xy4yI9VRdFkk8h6QiSj7-2">
          <mxGeometry x="55.5" width="1" height="50" as="geometry" />
        </mxCell>
        <mxCell id="xy4yI9VRdFkk8h6QiSj7-39" value="" style="rounded=0;whiteSpace=wrap;html=1;fillColor=#000000;strokeColor=none;" vertex="1" parent="xy4yI9VRdFkk8h6QiSj7-2">
          <mxGeometry x="65.5" width="1" height="50" as="geometry" />
        </mxCell>
        <mxCell id="xy4yI9VRdFkk8h6QiSj7-40" value="" style="rounded=0;whiteSpace=wrap;html=1;fillColor=#000000;strokeColor=none;" vertex="1" parent="xy4yI9VRdFkk8h6QiSj7-2">
          <mxGeometry x="59.5" width="1" height="50" as="geometry" />
        </mxCell>
        <mxCell id="xy4yI9VRdFkk8h6QiSj7-41" value="" style="rounded=0;whiteSpace=wrap;html=1;fillColor=#000000;strokeColor=none;" vertex="1" parent="xy4yI9VRdFkk8h6QiSj7-2">
          <mxGeometry x="69.5" width="1" height="50" as="geometry" />
        </mxCell>
        <mxCell id="xy4yI9VRdFkk8h6QiSj7-42" value="" style="rounded=0;whiteSpace=wrap;html=1;fillColor=#000000;strokeColor=none;" vertex="1" parent="xy4yI9VRdFkk8h6QiSj7-2">
          <mxGeometry x="68.5" width="1" height="50" as="geometry" />
        </mxCell>
        <mxCell id="xy4yI9VRdFkk8h6QiSj7-43" value="" style="rounded=0;whiteSpace=wrap;html=1;fillColor=#000000;strokeColor=none;" vertex="1" parent="xy4yI9VRdFkk8h6QiSj7-2">
          <mxGeometry x="71.5" width="1" height="50" as="geometry" />
        </mxCell>
        <mxCell id="xy4yI9VRdFkk8h6QiSj7-44" value="" style="rounded=0;whiteSpace=wrap;html=1;fillColor=#000000;strokeColor=none;" vertex="1" parent="xy4yI9VRdFkk8h6QiSj7-2">
          <mxGeometry x="75.5" width="1" height="50" as="geometry" />
        </mxCell>
        <mxCell id="xy4yI9VRdFkk8h6QiSj7-45" value="" style="rounded=0;whiteSpace=wrap;html=1;fillColor=#000000;strokeColor=none;" vertex="1" parent="xy4yI9VRdFkk8h6QiSj7-2">
          <mxGeometry x="2.5" width="1" height="50" as="geometry" />
        </mxCell>
        <mxCell id="xy4yI9VRdFkk8h6QiSj7-46" value="" style="rounded=0;whiteSpace=wrap;html=1;fillColor=#000000;strokeColor=none;" vertex="1" parent="xy4yI9VRdFkk8h6QiSj7-2">
          <mxGeometry x="6.5" width="1" height="50" as="geometry" />
        </mxCell>
        <mxCell id="xy4yI9VRdFkk8h6QiSj7-47" value="" style="rounded=0;whiteSpace=wrap;html=1;fillColor=#000000;strokeColor=none;" vertex="1" parent="xy4yI9VRdFkk8h6QiSj7-2">
          <mxGeometry x="0.5" width="1" height="50" as="geometry" />
        </mxCell>
        <mxCell id="xy4yI9VRdFkk8h6QiSj7-48" value="" style="rounded=0;whiteSpace=wrap;html=1;fillColor=#000000;strokeColor=none;" vertex="1" parent="xy4yI9VRdFkk8h6QiSj7-2">
          <mxGeometry x="75.5" width="1" height="50" as="geometry" />
        </mxCell>
        <mxCell id="xy4yI9VRdFkk8h6QiSj7-49" value="" style="rounded=0;whiteSpace=wrap;html=1;fillColor=#000000;strokeColor=none;" vertex="1" parent="xy4yI9VRdFkk8h6QiSj7-2">
          <mxGeometry x="79.5" width="1" height="50" as="geometry" />
        </mxCell>
        <mxCell id="xy4yI9VRdFkk8h6QiSj7-50" value="" style="rounded=0;whiteSpace=wrap;html=1;fillColor=#000000;strokeColor=none;" vertex="1" parent="xy4yI9VRdFkk8h6QiSj7-2">
          <mxGeometry x="73.5" width="1" height="50" as="geometry" />
        </mxCell>
        <mxCell id="xy4yI9VRdFkk8h6QiSj7-51" value="" style="group" vertex="1" connectable="0" parent="1">
          <mxGeometry x="100" y="410" width="320" height="40" as="geometry" />
        </mxCell>
        <mxCell id="xy4yI9VRdFkk8h6QiSj7-52" value="" style="rounded=0;whiteSpace=wrap;html=1;strokeColor=none;" vertex="1" parent="xy4yI9VRdFkk8h6QiSj7-51">
          <mxGeometry width="320" height="40" as="geometry" />
        </mxCell>
        <mxCell id="xy4yI9VRdFkk8h6QiSj7-53" value="" style="rounded=0;whiteSpace=wrap;html=1;fillColor=#000000;strokeColor=none;" vertex="1" parent="xy4yI9VRdFkk8h6QiSj7-51">
          <mxGeometry x="11" width="1" height="40" as="geometry" />
        </mxCell>
        <mxCell id="xy4yI9VRdFkk8h6QiSj7-54" value="" style="rounded=0;whiteSpace=wrap;html=1;fillColor=#000000;strokeColor=none;" vertex="1" parent="xy4yI9VRdFkk8h6QiSj7-51">
          <mxGeometry x="21" width="1" height="40" as="geometry" />
        </mxCell>
        <mxCell id="xy4yI9VRdFkk8h6QiSj7-55" value="" style="rounded=0;whiteSpace=wrap;html=1;fillColor=#000000;strokeColor=none;" vertex="1" parent="xy4yI9VRdFkk8h6QiSj7-51">
          <mxGeometry x="31" width="1" height="40" as="geometry" />
        </mxCell>
        <mxCell id="xy4yI9VRdFkk8h6QiSj7-56" value="" style="rounded=0;whiteSpace=wrap;html=1;fillColor=#000000;strokeColor=none;" vertex="1" parent="xy4yI9VRdFkk8h6QiSj7-51">
          <mxGeometry x="46" width="1" height="40" as="geometry" />
        </mxCell>
        <mxCell id="xy4yI9VRdFkk8h6QiSj7-57" value="" style="rounded=0;whiteSpace=wrap;html=1;fillColor=#000000;strokeColor=none;" vertex="1" parent="xy4yI9VRdFkk8h6QiSj7-51">
          <mxGeometry x="56" width="1" height="40" as="geometry" />
        </mxCell>
        <mxCell id="xy4yI9VRdFkk8h6QiSj7-58" value="" style="rounded=0;whiteSpace=wrap;html=1;fillColor=#000000;strokeColor=none;" vertex="1" parent="xy4yI9VRdFkk8h6QiSj7-51">
          <mxGeometry x="66" width="1" height="40" as="geometry" />
        </mxCell>
        <mxCell id="xy4yI9VRdFkk8h6QiSj7-59" value="" style="rounded=0;whiteSpace=wrap;html=1;fillColor=#000000;strokeColor=none;" vertex="1" parent="xy4yI9VRdFkk8h6QiSj7-51">
          <mxGeometry x="60" width="1" height="40" as="geometry" />
        </mxCell>
        <mxCell id="xy4yI9VRdFkk8h6QiSj7-60" value="" style="rounded=0;whiteSpace=wrap;html=1;fillColor=#000000;strokeColor=none;" vertex="1" parent="xy4yI9VRdFkk8h6QiSj7-51">
          <mxGeometry x="70" width="1" height="40" as="geometry" />
        </mxCell>
        <mxCell id="xy4yI9VRdFkk8h6QiSj7-61" value="" style="rounded=0;whiteSpace=wrap;html=1;fillColor=#000000;strokeColor=none;" vertex="1" parent="xy4yI9VRdFkk8h6QiSj7-51">
          <mxGeometry x="80" width="1" height="40" as="geometry" />
        </mxCell>
        <mxCell id="xy4yI9VRdFkk8h6QiSj7-62" value="" style="rounded=0;whiteSpace=wrap;html=1;fillColor=#000000;strokeColor=none;" vertex="1" parent="xy4yI9VRdFkk8h6QiSj7-51">
          <mxGeometry x="95" width="1" height="40" as="geometry" />
        </mxCell>
        <mxCell id="xy4yI9VRdFkk8h6QiSj7-63" value="" style="rounded=0;whiteSpace=wrap;html=1;fillColor=#000000;strokeColor=none;" vertex="1" parent="xy4yI9VRdFkk8h6QiSj7-51">
          <mxGeometry x="105" width="1" height="40" as="geometry" />
        </mxCell>
        <mxCell id="xy4yI9VRdFkk8h6QiSj7-64" value="" style="rounded=0;whiteSpace=wrap;html=1;fillColor=#000000;strokeColor=none;" vertex="1" parent="xy4yI9VRdFkk8h6QiSj7-51">
          <mxGeometry x="115" width="1" height="40" as="geometry" />
        </mxCell>
        <mxCell id="xy4yI9VRdFkk8h6QiSj7-65" value="" style="rounded=0;whiteSpace=wrap;html=1;fillColor=#000000;strokeColor=none;" vertex="1" parent="xy4yI9VRdFkk8h6QiSj7-51">
          <mxGeometry x="123.5" width="1" height="40" as="geometry" />
        </mxCell>
        <mxCell id="xy4yI9VRdFkk8h6QiSj7-66" value="" style="rounded=0;whiteSpace=wrap;html=1;fillColor=#000000;strokeColor=none;" vertex="1" parent="xy4yI9VRdFkk8h6QiSj7-51">
          <mxGeometry x="133.5" width="1" height="40" as="geometry" />
        </mxCell>
        <mxCell id="xy4yI9VRdFkk8h6QiSj7-67" value="" style="rounded=0;whiteSpace=wrap;html=1;fillColor=#000000;strokeColor=none;" vertex="1" parent="xy4yI9VRdFkk8h6QiSj7-51">
          <mxGeometry x="143.5" width="1" height="40" as="geometry" />
        </mxCell>
        <mxCell id="xy4yI9VRdFkk8h6QiSj7-68" value="" style="rounded=0;whiteSpace=wrap;html=1;fillColor=#000000;strokeColor=none;" vertex="1" parent="xy4yI9VRdFkk8h6QiSj7-51">
          <mxGeometry x="158.5" width="1" height="40" as="geometry" />
        </mxCell>
        <mxCell id="xy4yI9VRdFkk8h6QiSj7-69" value="" style="rounded=0;whiteSpace=wrap;html=1;fillColor=#000000;strokeColor=none;" vertex="1" parent="xy4yI9VRdFkk8h6QiSj7-51">
          <mxGeometry x="168.5" width="1" height="40" as="geometry" />
        </mxCell>
        <mxCell id="xy4yI9VRdFkk8h6QiSj7-70" value="" style="rounded=0;whiteSpace=wrap;html=1;fillColor=#000000;strokeColor=none;" vertex="1" parent="xy4yI9VRdFkk8h6QiSj7-51">
          <mxGeometry x="178.5" width="1" height="40" as="geometry" />
        </mxCell>
        <mxCell id="xy4yI9VRdFkk8h6QiSj7-71" value="" style="rounded=0;whiteSpace=wrap;html=1;fillColor=#000000;strokeColor=none;" vertex="1" parent="xy4yI9VRdFkk8h6QiSj7-51">
          <mxGeometry x="172.5" width="1" height="40" as="geometry" />
        </mxCell>
        <mxCell id="xy4yI9VRdFkk8h6QiSj7-72" value="" style="rounded=0;whiteSpace=wrap;html=1;fillColor=#000000;strokeColor=none;" vertex="1" parent="xy4yI9VRdFkk8h6QiSj7-51">
          <mxGeometry x="182.5" width="1" height="40" as="geometry" />
        </mxCell>
        <mxCell id="xy4yI9VRdFkk8h6QiSj7-73" value="" style="rounded=0;whiteSpace=wrap;html=1;fillColor=#000000;strokeColor=none;" vertex="1" parent="xy4yI9VRdFkk8h6QiSj7-51">
          <mxGeometry x="192.5" width="1" height="40" as="geometry" />
        </mxCell>
        <mxCell id="xy4yI9VRdFkk8h6QiSj7-74" value="" style="rounded=0;whiteSpace=wrap;html=1;fillColor=#000000;strokeColor=none;" vertex="1" parent="xy4yI9VRdFkk8h6QiSj7-51">
          <mxGeometry x="207.5" width="1" height="40" as="geometry" />
        </mxCell>
        <mxCell id="xy4yI9VRdFkk8h6QiSj7-75" value="" style="rounded=0;whiteSpace=wrap;html=1;fillColor=#000000;strokeColor=none;" vertex="1" parent="xy4yI9VRdFkk8h6QiSj7-51">
          <mxGeometry x="217.5" width="1" height="40" as="geometry" />
        </mxCell>
        <mxCell id="xy4yI9VRdFkk8h6QiSj7-76" value="" style="rounded=0;whiteSpace=wrap;html=1;fillColor=#000000;strokeColor=none;" vertex="1" parent="xy4yI9VRdFkk8h6QiSj7-51">
          <mxGeometry x="227.5" width="1" height="40" as="geometry" />
        </mxCell>
        <mxCell id="xy4yI9VRdFkk8h6QiSj7-77" value="" style="rounded=0;whiteSpace=wrap;html=1;fillColor=#000000;strokeColor=none;" vertex="1" parent="xy4yI9VRdFkk8h6QiSj7-51">
          <mxGeometry x="61" width="1" height="40" as="geometry" />
        </mxCell>
        <mxCell id="xy4yI9VRdFkk8h6QiSj7-78" value="" style="rounded=0;whiteSpace=wrap;html=1;fillColor=#000000;strokeColor=none;" vertex="1" parent="xy4yI9VRdFkk8h6QiSj7-51">
          <mxGeometry x="71" width="1" height="40" as="geometry" />
        </mxCell>
        <mxCell id="xy4yI9VRdFkk8h6QiSj7-79" value="" style="rounded=0;whiteSpace=wrap;html=1;fillColor=#000000;strokeColor=none;" vertex="1" parent="xy4yI9VRdFkk8h6QiSj7-51">
          <mxGeometry x="81" width="1" height="40" as="geometry" />
        </mxCell>
        <mxCell id="xy4yI9VRdFkk8h6QiSj7-80" value="" style="rounded=0;whiteSpace=wrap;html=1;fillColor=#000000;strokeColor=none;" vertex="1" parent="xy4yI9VRdFkk8h6QiSj7-51">
          <mxGeometry x="96" width="1" height="40" as="geometry" />
        </mxCell>
        <mxCell id="xy4yI9VRdFkk8h6QiSj7-81" value="" style="rounded=0;whiteSpace=wrap;html=1;fillColor=#000000;strokeColor=none;" vertex="1" parent="xy4yI9VRdFkk8h6QiSj7-51">
          <mxGeometry x="106" width="1" height="40" as="geometry" />
        </mxCell>
        <mxCell id="xy4yI9VRdFkk8h6QiSj7-82" value="" style="rounded=0;whiteSpace=wrap;html=1;fillColor=#000000;strokeColor=none;" vertex="1" parent="xy4yI9VRdFkk8h6QiSj7-51">
          <mxGeometry x="116" width="1" height="40" as="geometry" />
        </mxCell>
        <mxCell id="xy4yI9VRdFkk8h6QiSj7-83" value="" style="rounded=0;whiteSpace=wrap;html=1;fillColor=#000000;strokeColor=none;" vertex="1" parent="xy4yI9VRdFkk8h6QiSj7-51">
          <mxGeometry x="110" width="1" height="40" as="geometry" />
        </mxCell>
        <mxCell id="xy4yI9VRdFkk8h6QiSj7-84" value="" style="rounded=0;whiteSpace=wrap;html=1;fillColor=#000000;strokeColor=none;" vertex="1" parent="xy4yI9VRdFkk8h6QiSj7-51">
          <mxGeometry x="120" width="1" height="40" as="geometry" />
        </mxCell>
        <mxCell id="xy4yI9VRdFkk8h6QiSj7-85" value="" style="rounded=0;whiteSpace=wrap;html=1;fillColor=#000000;strokeColor=none;" vertex="1" parent="xy4yI9VRdFkk8h6QiSj7-51">
          <mxGeometry x="130" width="1" height="40" as="geometry" />
        </mxCell>
        <mxCell id="xy4yI9VRdFkk8h6QiSj7-86" value="" style="rounded=0;whiteSpace=wrap;html=1;fillColor=#000000;strokeColor=none;" vertex="1" parent="xy4yI9VRdFkk8h6QiSj7-51">
          <mxGeometry x="145" width="1" height="40" as="geometry" />
        </mxCell>
        <mxCell id="xy4yI9VRdFkk8h6QiSj7-87" value="" style="rounded=0;whiteSpace=wrap;html=1;fillColor=#000000;strokeColor=none;" vertex="1" parent="xy4yI9VRdFkk8h6QiSj7-51">
          <mxGeometry x="155" width="1" height="40" as="geometry" />
        </mxCell>
        <mxCell id="xy4yI9VRdFkk8h6QiSj7-88" value="" style="rounded=0;whiteSpace=wrap;html=1;fillColor=#000000;strokeColor=none;" vertex="1" parent="xy4yI9VRdFkk8h6QiSj7-51">
          <mxGeometry x="165" width="1" height="40" as="geometry" />
        </mxCell>
        <mxCell id="xy4yI9VRdFkk8h6QiSj7-89" value="" style="rounded=0;whiteSpace=wrap;html=1;fillColor=#000000;strokeColor=none;" vertex="1" parent="xy4yI9VRdFkk8h6QiSj7-51">
          <mxGeometry x="173.5" width="1" height="40" as="geometry" />
        </mxCell>
        <mxCell id="xy4yI9VRdFkk8h6QiSj7-90" value="" style="rounded=0;whiteSpace=wrap;html=1;fillColor=#000000;strokeColor=none;" vertex="1" parent="xy4yI9VRdFkk8h6QiSj7-51">
          <mxGeometry x="183.5" width="1" height="40" as="geometry" />
        </mxCell>
        <mxCell id="xy4yI9VRdFkk8h6QiSj7-91" value="" style="rounded=0;whiteSpace=wrap;html=1;fillColor=#000000;strokeColor=none;" vertex="1" parent="xy4yI9VRdFkk8h6QiSj7-51">
          <mxGeometry x="193.5" width="1" height="40" as="geometry" />
        </mxCell>
        <mxCell id="xy4yI9VRdFkk8h6QiSj7-92" value="" style="rounded=0;whiteSpace=wrap;html=1;fillColor=#000000;strokeColor=none;" vertex="1" parent="xy4yI9VRdFkk8h6QiSj7-51">
          <mxGeometry x="208.5" width="1" height="40" as="geometry" />
        </mxCell>
        <mxCell id="xy4yI9VRdFkk8h6QiSj7-93" value="" style="rounded=0;whiteSpace=wrap;html=1;fillColor=#000000;strokeColor=none;" vertex="1" parent="xy4yI9VRdFkk8h6QiSj7-51">
          <mxGeometry x="218.5" width="1" height="40" as="geometry" />
        </mxCell>
        <mxCell id="xy4yI9VRdFkk8h6QiSj7-94" value="" style="rounded=0;whiteSpace=wrap;html=1;fillColor=#000000;strokeColor=none;" vertex="1" parent="xy4yI9VRdFkk8h6QiSj7-51">
          <mxGeometry x="228.5" width="1" height="40" as="geometry" />
        </mxCell>
        <mxCell id="xy4yI9VRdFkk8h6QiSj7-95" value="" style="rounded=0;whiteSpace=wrap;html=1;fillColor=#000000;strokeColor=none;" vertex="1" parent="xy4yI9VRdFkk8h6QiSj7-51">
          <mxGeometry x="222.5" width="1" height="40" as="geometry" />
        </mxCell>
        <mxCell id="xy4yI9VRdFkk8h6QiSj7-96" value="" style="rounded=0;whiteSpace=wrap;html=1;fillColor=#000000;strokeColor=none;" vertex="1" parent="xy4yI9VRdFkk8h6QiSj7-51">
          <mxGeometry x="232.5" width="1" height="40" as="geometry" />
        </mxCell>
        <mxCell id="xy4yI9VRdFkk8h6QiSj7-97" value="" style="rounded=0;whiteSpace=wrap;html=1;fillColor=#000000;strokeColor=none;" vertex="1" parent="xy4yI9VRdFkk8h6QiSj7-51">
          <mxGeometry x="242.5" width="1" height="40" as="geometry" />
        </mxCell>
        <mxCell id="xy4yI9VRdFkk8h6QiSj7-98" value="" style="rounded=0;whiteSpace=wrap;html=1;fillColor=#000000;strokeColor=none;" vertex="1" parent="xy4yI9VRdFkk8h6QiSj7-51">
          <mxGeometry x="257.5" width="1" height="40" as="geometry" />
        </mxCell>
        <mxCell id="xy4yI9VRdFkk8h6QiSj7-99" value="" style="rounded=0;whiteSpace=wrap;html=1;fillColor=#000000;strokeColor=none;" vertex="1" parent="xy4yI9VRdFkk8h6QiSj7-51">
          <mxGeometry x="267.5" width="1" height="40" as="geometry" />
        </mxCell>
        <mxCell id="xy4yI9VRdFkk8h6QiSj7-100" value="" style="rounded=0;whiteSpace=wrap;html=1;fillColor=#000000;strokeColor=none;" vertex="1" parent="xy4yI9VRdFkk8h6QiSj7-51">
          <mxGeometry x="277.5" width="1" height="40" as="geometry" />
        </mxCell>
        <mxCell id="xy4yI9VRdFkk8h6QiSj7-101" value="" style="rounded=0;whiteSpace=wrap;html=1;fillColor=#000000;strokeColor=none;" vertex="1" parent="xy4yI9VRdFkk8h6QiSj7-51">
          <mxGeometry x="46" width="1" height="40" as="geometry" />
        </mxCell>
        <mxCell id="xy4yI9VRdFkk8h6QiSj7-102" value="" style="rounded=0;whiteSpace=wrap;html=1;fillColor=#000000;strokeColor=none;" vertex="1" parent="xy4yI9VRdFkk8h6QiSj7-51">
          <mxGeometry x="56" width="1" height="40" as="geometry" />
        </mxCell>
        <mxCell id="xy4yI9VRdFkk8h6QiSj7-103" value="" style="rounded=0;whiteSpace=wrap;html=1;fillColor=#000000;strokeColor=none;" vertex="1" parent="xy4yI9VRdFkk8h6QiSj7-51">
          <mxGeometry x="66" width="1" height="40" as="geometry" />
        </mxCell>
        <mxCell id="xy4yI9VRdFkk8h6QiSj7-104" value="" style="rounded=0;whiteSpace=wrap;html=1;fillColor=#000000;strokeColor=none;" vertex="1" parent="xy4yI9VRdFkk8h6QiSj7-51">
          <mxGeometry x="81" width="1" height="40" as="geometry" />
        </mxCell>
        <mxCell id="xy4yI9VRdFkk8h6QiSj7-105" value="" style="rounded=0;whiteSpace=wrap;html=1;fillColor=#000000;strokeColor=none;" vertex="1" parent="xy4yI9VRdFkk8h6QiSj7-51">
          <mxGeometry x="91" width="1" height="40" as="geometry" />
        </mxCell>
        <mxCell id="xy4yI9VRdFkk8h6QiSj7-106" value="" style="rounded=0;whiteSpace=wrap;html=1;fillColor=#000000;strokeColor=none;" vertex="1" parent="xy4yI9VRdFkk8h6QiSj7-51">
          <mxGeometry x="101" width="1" height="40" as="geometry" />
        </mxCell>
        <mxCell id="xy4yI9VRdFkk8h6QiSj7-107" value="" style="rounded=0;whiteSpace=wrap;html=1;fillColor=#000000;strokeColor=none;" vertex="1" parent="xy4yI9VRdFkk8h6QiSj7-51">
          <mxGeometry x="95" width="1" height="40" as="geometry" />
        </mxCell>
        <mxCell id="xy4yI9VRdFkk8h6QiSj7-108" value="" style="rounded=0;whiteSpace=wrap;html=1;fillColor=#000000;strokeColor=none;" vertex="1" parent="xy4yI9VRdFkk8h6QiSj7-51">
          <mxGeometry x="105" width="1" height="40" as="geometry" />
        </mxCell>
        <mxCell id="xy4yI9VRdFkk8h6QiSj7-109" value="" style="rounded=0;whiteSpace=wrap;html=1;fillColor=#000000;strokeColor=none;" vertex="1" parent="xy4yI9VRdFkk8h6QiSj7-51">
          <mxGeometry x="115" width="1" height="40" as="geometry" />
        </mxCell>
        <mxCell id="xy4yI9VRdFkk8h6QiSj7-110" value="" style="rounded=0;whiteSpace=wrap;html=1;fillColor=#000000;strokeColor=none;" vertex="1" parent="xy4yI9VRdFkk8h6QiSj7-51">
          <mxGeometry x="130" width="1" height="40" as="geometry" />
        </mxCell>
        <mxCell id="xy4yI9VRdFkk8h6QiSj7-111" value="" style="rounded=0;whiteSpace=wrap;html=1;fillColor=#000000;strokeColor=none;" vertex="1" parent="xy4yI9VRdFkk8h6QiSj7-51">
          <mxGeometry x="140" width="1" height="40" as="geometry" />
        </mxCell>
        <mxCell id="xy4yI9VRdFkk8h6QiSj7-112" value="" style="rounded=0;whiteSpace=wrap;html=1;fillColor=#000000;strokeColor=none;" vertex="1" parent="xy4yI9VRdFkk8h6QiSj7-51">
          <mxGeometry x="150" width="1" height="40" as="geometry" />
        </mxCell>
        <mxCell id="xy4yI9VRdFkk8h6QiSj7-113" value="" style="rounded=0;whiteSpace=wrap;html=1;fillColor=#000000;strokeColor=none;" vertex="1" parent="xy4yI9VRdFkk8h6QiSj7-51">
          <mxGeometry x="158.5" width="1" height="40" as="geometry" />
        </mxCell>
        <mxCell id="xy4yI9VRdFkk8h6QiSj7-114" value="" style="rounded=0;whiteSpace=wrap;html=1;fillColor=#000000;strokeColor=none;" vertex="1" parent="xy4yI9VRdFkk8h6QiSj7-51">
          <mxGeometry x="168.5" width="1" height="40" as="geometry" />
        </mxCell>
        <mxCell id="xy4yI9VRdFkk8h6QiSj7-115" value="" style="rounded=0;whiteSpace=wrap;html=1;fillColor=#000000;strokeColor=none;" vertex="1" parent="xy4yI9VRdFkk8h6QiSj7-51">
          <mxGeometry x="178.5" width="1" height="40" as="geometry" />
        </mxCell>
        <mxCell id="xy4yI9VRdFkk8h6QiSj7-116" value="" style="rounded=0;whiteSpace=wrap;html=1;fillColor=#000000;strokeColor=none;" vertex="1" parent="xy4yI9VRdFkk8h6QiSj7-51">
          <mxGeometry x="193.5" width="1" height="40" as="geometry" />
        </mxCell>
        <mxCell id="xy4yI9VRdFkk8h6QiSj7-117" value="" style="rounded=0;whiteSpace=wrap;html=1;fillColor=#000000;strokeColor=none;" vertex="1" parent="xy4yI9VRdFkk8h6QiSj7-51">
          <mxGeometry x="203.5" width="1" height="40" as="geometry" />
        </mxCell>
        <mxCell id="xy4yI9VRdFkk8h6QiSj7-118" value="" style="rounded=0;whiteSpace=wrap;html=1;fillColor=#000000;strokeColor=none;" vertex="1" parent="xy4yI9VRdFkk8h6QiSj7-51">
          <mxGeometry x="213.5" width="1" height="40" as="geometry" />
        </mxCell>
        <mxCell id="xy4yI9VRdFkk8h6QiSj7-119" value="" style="rounded=0;whiteSpace=wrap;html=1;fillColor=#000000;strokeColor=none;" vertex="1" parent="xy4yI9VRdFkk8h6QiSj7-51">
          <mxGeometry x="207.5" width="1" height="40" as="geometry" />
        </mxCell>
        <mxCell id="xy4yI9VRdFkk8h6QiSj7-120" value="" style="rounded=0;whiteSpace=wrap;html=1;fillColor=#000000;strokeColor=none;" vertex="1" parent="xy4yI9VRdFkk8h6QiSj7-51">
          <mxGeometry x="217.5" width="1" height="40" as="geometry" />
        </mxCell>
        <mxCell id="xy4yI9VRdFkk8h6QiSj7-121" value="" style="rounded=0;whiteSpace=wrap;html=1;fillColor=#000000;strokeColor=none;" vertex="1" parent="xy4yI9VRdFkk8h6QiSj7-51">
          <mxGeometry x="227.5" width="1" height="40" as="geometry" />
        </mxCell>
        <mxCell id="xy4yI9VRdFkk8h6QiSj7-122" value="" style="rounded=0;whiteSpace=wrap;html=1;fillColor=#000000;strokeColor=none;" vertex="1" parent="xy4yI9VRdFkk8h6QiSj7-51">
          <mxGeometry x="242.5" width="1" height="40" as="geometry" />
        </mxCell>
        <mxCell id="xy4yI9VRdFkk8h6QiSj7-123" value="" style="rounded=0;whiteSpace=wrap;html=1;fillColor=#000000;strokeColor=none;" vertex="1" parent="xy4yI9VRdFkk8h6QiSj7-51">
          <mxGeometry x="252.5" width="1" height="40" as="geometry" />
        </mxCell>
        <mxCell id="xy4yI9VRdFkk8h6QiSj7-124" value="" style="rounded=0;whiteSpace=wrap;html=1;fillColor=#000000;strokeColor=none;" vertex="1" parent="xy4yI9VRdFkk8h6QiSj7-51">
          <mxGeometry x="262.5" width="1" height="40" as="geometry" />
        </mxCell>
        <mxCell id="xy4yI9VRdFkk8h6QiSj7-125" value="" style="rounded=0;whiteSpace=wrap;html=1;fillColor=#000000;strokeColor=none;" vertex="1" parent="xy4yI9VRdFkk8h6QiSj7-51">
          <mxGeometry x="96" width="1" height="40" as="geometry" />
        </mxCell>
        <mxCell id="xy4yI9VRdFkk8h6QiSj7-126" value="" style="rounded=0;whiteSpace=wrap;html=1;fillColor=#000000;strokeColor=none;" vertex="1" parent="xy4yI9VRdFkk8h6QiSj7-51">
          <mxGeometry x="106" width="1" height="40" as="geometry" />
        </mxCell>
        <mxCell id="xy4yI9VRdFkk8h6QiSj7-127" value="" style="rounded=0;whiteSpace=wrap;html=1;fillColor=#000000;strokeColor=none;" vertex="1" parent="xy4yI9VRdFkk8h6QiSj7-51">
          <mxGeometry x="116" width="1" height="40" as="geometry" />
        </mxCell>
        <mxCell id="xy4yI9VRdFkk8h6QiSj7-128" value="" style="rounded=0;whiteSpace=wrap;html=1;fillColor=#000000;strokeColor=none;" vertex="1" parent="xy4yI9VRdFkk8h6QiSj7-51">
          <mxGeometry x="131" width="1" height="40" as="geometry" />
        </mxCell>
        <mxCell id="xy4yI9VRdFkk8h6QiSj7-129" value="" style="rounded=0;whiteSpace=wrap;html=1;fillColor=#000000;strokeColor=none;" vertex="1" parent="xy4yI9VRdFkk8h6QiSj7-51">
          <mxGeometry x="141" width="1" height="40" as="geometry" />
        </mxCell>
        <mxCell id="xy4yI9VRdFkk8h6QiSj7-130" value="" style="rounded=0;whiteSpace=wrap;html=1;fillColor=#000000;strokeColor=none;" vertex="1" parent="xy4yI9VRdFkk8h6QiSj7-51">
          <mxGeometry x="151" width="1" height="40" as="geometry" />
        </mxCell>
        <mxCell id="xy4yI9VRdFkk8h6QiSj7-131" value="" style="rounded=0;whiteSpace=wrap;html=1;fillColor=#000000;strokeColor=none;" vertex="1" parent="xy4yI9VRdFkk8h6QiSj7-51">
          <mxGeometry x="145" width="1" height="40" as="geometry" />
        </mxCell>
        <mxCell id="xy4yI9VRdFkk8h6QiSj7-132" value="" style="rounded=0;whiteSpace=wrap;html=1;fillColor=#000000;strokeColor=none;" vertex="1" parent="xy4yI9VRdFkk8h6QiSj7-51">
          <mxGeometry x="155" width="1" height="40" as="geometry" />
        </mxCell>
        <mxCell id="xy4yI9VRdFkk8h6QiSj7-133" value="" style="rounded=0;whiteSpace=wrap;html=1;fillColor=#000000;strokeColor=none;" vertex="1" parent="xy4yI9VRdFkk8h6QiSj7-51">
          <mxGeometry x="165" width="1" height="40" as="geometry" />
        </mxCell>
        <mxCell id="xy4yI9VRdFkk8h6QiSj7-134" value="" style="rounded=0;whiteSpace=wrap;html=1;fillColor=#000000;strokeColor=none;" vertex="1" parent="xy4yI9VRdFkk8h6QiSj7-51">
          <mxGeometry x="180" width="1" height="40" as="geometry" />
        </mxCell>
        <mxCell id="xy4yI9VRdFkk8h6QiSj7-135" value="" style="rounded=0;whiteSpace=wrap;html=1;fillColor=#000000;strokeColor=none;" vertex="1" parent="xy4yI9VRdFkk8h6QiSj7-51">
          <mxGeometry x="190" width="1" height="40" as="geometry" />
        </mxCell>
        <mxCell id="xy4yI9VRdFkk8h6QiSj7-136" value="" style="rounded=0;whiteSpace=wrap;html=1;fillColor=#000000;strokeColor=none;" vertex="1" parent="xy4yI9VRdFkk8h6QiSj7-51">
          <mxGeometry x="200" width="1" height="40" as="geometry" />
        </mxCell>
        <mxCell id="xy4yI9VRdFkk8h6QiSj7-137" value="" style="rounded=0;whiteSpace=wrap;html=1;fillColor=#000000;strokeColor=none;" vertex="1" parent="xy4yI9VRdFkk8h6QiSj7-51">
          <mxGeometry x="208.5" width="1" height="40" as="geometry" />
        </mxCell>
        <mxCell id="xy4yI9VRdFkk8h6QiSj7-138" value="" style="rounded=0;whiteSpace=wrap;html=1;fillColor=#000000;strokeColor=none;" vertex="1" parent="xy4yI9VRdFkk8h6QiSj7-51">
          <mxGeometry x="218.5" width="1" height="40" as="geometry" />
        </mxCell>
        <mxCell id="xy4yI9VRdFkk8h6QiSj7-139" value="" style="rounded=0;whiteSpace=wrap;html=1;fillColor=#000000;strokeColor=none;" vertex="1" parent="xy4yI9VRdFkk8h6QiSj7-51">
          <mxGeometry x="228.5" width="1" height="40" as="geometry" />
        </mxCell>
        <mxCell id="xy4yI9VRdFkk8h6QiSj7-140" value="" style="rounded=0;whiteSpace=wrap;html=1;fillColor=#000000;strokeColor=none;" vertex="1" parent="xy4yI9VRdFkk8h6QiSj7-51">
          <mxGeometry x="243.5" width="1" height="40" as="geometry" />
        </mxCell>
        <mxCell id="xy4yI9VRdFkk8h6QiSj7-141" value="" style="rounded=0;whiteSpace=wrap;html=1;fillColor=#000000;strokeColor=none;" vertex="1" parent="xy4yI9VRdFkk8h6QiSj7-51">
          <mxGeometry x="253.5" width="1" height="40" as="geometry" />
        </mxCell>
        <mxCell id="xy4yI9VRdFkk8h6QiSj7-142" value="" style="rounded=0;whiteSpace=wrap;html=1;fillColor=#000000;strokeColor=none;" vertex="1" parent="xy4yI9VRdFkk8h6QiSj7-51">
          <mxGeometry x="263.5" width="1" height="40" as="geometry" />
        </mxCell>
        <mxCell id="xy4yI9VRdFkk8h6QiSj7-143" value="" style="rounded=0;whiteSpace=wrap;html=1;fillColor=#000000;strokeColor=none;" vertex="1" parent="xy4yI9VRdFkk8h6QiSj7-51">
          <mxGeometry x="257.5" width="1" height="40" as="geometry" />
        </mxCell>
        <mxCell id="xy4yI9VRdFkk8h6QiSj7-144" value="" style="rounded=0;whiteSpace=wrap;html=1;fillColor=#000000;strokeColor=none;" vertex="1" parent="xy4yI9VRdFkk8h6QiSj7-51">
          <mxGeometry x="267.5" width="1" height="40" as="geometry" />
        </mxCell>
        <mxCell id="xy4yI9VRdFkk8h6QiSj7-145" value="" style="rounded=0;whiteSpace=wrap;html=1;fillColor=#000000;strokeColor=none;" vertex="1" parent="xy4yI9VRdFkk8h6QiSj7-51">
          <mxGeometry x="277.5" width="1" height="40" as="geometry" />
        </mxCell>
        <mxCell id="xy4yI9VRdFkk8h6QiSj7-146" value="" style="rounded=0;whiteSpace=wrap;html=1;fillColor=#000000;strokeColor=none;" vertex="1" parent="xy4yI9VRdFkk8h6QiSj7-51">
          <mxGeometry x="292.5" width="1" height="40" as="geometry" />
        </mxCell>
        <mxCell id="xy4yI9VRdFkk8h6QiSj7-147" value="" style="rounded=0;whiteSpace=wrap;html=1;fillColor=#000000;strokeColor=none;" vertex="1" parent="xy4yI9VRdFkk8h6QiSj7-51">
          <mxGeometry x="302.5" width="1" height="40" as="geometry" />
        </mxCell>
        <mxCell id="xy4yI9VRdFkk8h6QiSj7-148" value="" style="rounded=0;whiteSpace=wrap;html=1;fillColor=#000000;strokeColor=none;" vertex="1" parent="xy4yI9VRdFkk8h6QiSj7-51">
          <mxGeometry x="312.5" width="1" height="40" as="geometry" />
        </mxCell>
        <mxCell id="xy4yI9VRdFkk8h6QiSj7-149" value="" style="rounded=0;whiteSpace=wrap;html=1;fillColor=#000000;strokeColor=none;" vertex="1" parent="xy4yI9VRdFkk8h6QiSj7-51">
          <mxGeometry x="7" width="1" height="40" as="geometry" />
        </mxCell>
        <mxCell id="xy4yI9VRdFkk8h6QiSj7-150" value="" style="rounded=0;whiteSpace=wrap;html=1;fillColor=#000000;strokeColor=none;" vertex="1" parent="xy4yI9VRdFkk8h6QiSj7-51">
          <mxGeometry x="17" width="1" height="40" as="geometry" />
        </mxCell>
        <mxCell id="xy4yI9VRdFkk8h6QiSj7-151" value="" style="rounded=0;whiteSpace=wrap;html=1;fillColor=#000000;strokeColor=none;" vertex="1" parent="xy4yI9VRdFkk8h6QiSj7-51">
          <mxGeometry x="27" width="1" height="40" as="geometry" />
        </mxCell>
        <mxCell id="xy4yI9VRdFkk8h6QiSj7-152" value="" style="rounded=0;whiteSpace=wrap;html=1;fillColor=#000000;strokeColor=none;" vertex="1" parent="xy4yI9VRdFkk8h6QiSj7-51">
          <mxGeometry x="42" width="1" height="40" as="geometry" />
        </mxCell>
        <mxCell id="xy4yI9VRdFkk8h6QiSj7-153" value="" style="rounded=0;whiteSpace=wrap;html=1;fillColor=#000000;strokeColor=none;" vertex="1" parent="xy4yI9VRdFkk8h6QiSj7-51">
          <mxGeometry x="52" width="1" height="40" as="geometry" />
        </mxCell>
        <mxCell id="xy4yI9VRdFkk8h6QiSj7-154" value="" style="rounded=0;whiteSpace=wrap;html=1;fillColor=#000000;strokeColor=none;" vertex="1" parent="xy4yI9VRdFkk8h6QiSj7-51">
          <mxGeometry x="62" width="1" height="40" as="geometry" />
        </mxCell>
        <mxCell id="xy4yI9VRdFkk8h6QiSj7-155" value="" style="rounded=0;whiteSpace=wrap;html=1;fillColor=#000000;strokeColor=none;" vertex="1" parent="xy4yI9VRdFkk8h6QiSj7-51">
          <mxGeometry x="56" width="1" height="40" as="geometry" />
        </mxCell>
        <mxCell id="xy4yI9VRdFkk8h6QiSj7-156" value="" style="rounded=0;whiteSpace=wrap;html=1;fillColor=#000000;strokeColor=none;" vertex="1" parent="xy4yI9VRdFkk8h6QiSj7-51">
          <mxGeometry x="66" width="1" height="40" as="geometry" />
        </mxCell>
        <mxCell id="xy4yI9VRdFkk8h6QiSj7-157" value="" style="rounded=0;whiteSpace=wrap;html=1;fillColor=#000000;strokeColor=none;" vertex="1" parent="xy4yI9VRdFkk8h6QiSj7-51">
          <mxGeometry x="76" width="1" height="40" as="geometry" />
        </mxCell>
        <mxCell id="xy4yI9VRdFkk8h6QiSj7-158" value="" style="rounded=0;whiteSpace=wrap;html=1;fillColor=#000000;strokeColor=none;" vertex="1" parent="xy4yI9VRdFkk8h6QiSj7-51">
          <mxGeometry x="91" width="1" height="40" as="geometry" />
        </mxCell>
        <mxCell id="xy4yI9VRdFkk8h6QiSj7-159" value="" style="rounded=0;whiteSpace=wrap;html=1;fillColor=#000000;strokeColor=none;" vertex="1" parent="xy4yI9VRdFkk8h6QiSj7-51">
          <mxGeometry x="101" width="1" height="40" as="geometry" />
        </mxCell>
        <mxCell id="xy4yI9VRdFkk8h6QiSj7-160" value="" style="rounded=0;whiteSpace=wrap;html=1;fillColor=#000000;strokeColor=none;" vertex="1" parent="xy4yI9VRdFkk8h6QiSj7-51">
          <mxGeometry x="111" width="1" height="40" as="geometry" />
        </mxCell>
        <mxCell id="xy4yI9VRdFkk8h6QiSj7-161" value="" style="rounded=0;whiteSpace=wrap;html=1;fillColor=#000000;strokeColor=none;" vertex="1" parent="xy4yI9VRdFkk8h6QiSj7-51">
          <mxGeometry x="119.5" width="1" height="40" as="geometry" />
        </mxCell>
        <mxCell id="xy4yI9VRdFkk8h6QiSj7-162" value="" style="rounded=0;whiteSpace=wrap;html=1;fillColor=#000000;strokeColor=none;" vertex="1" parent="xy4yI9VRdFkk8h6QiSj7-51">
          <mxGeometry x="129.5" width="1" height="40" as="geometry" />
        </mxCell>
        <mxCell id="xy4yI9VRdFkk8h6QiSj7-163" value="" style="rounded=0;whiteSpace=wrap;html=1;fillColor=#000000;strokeColor=none;" vertex="1" parent="xy4yI9VRdFkk8h6QiSj7-51">
          <mxGeometry x="139.5" width="1" height="40" as="geometry" />
        </mxCell>
        <mxCell id="xy4yI9VRdFkk8h6QiSj7-164" value="" style="rounded=0;whiteSpace=wrap;html=1;fillColor=#000000;strokeColor=none;" vertex="1" parent="xy4yI9VRdFkk8h6QiSj7-51">
          <mxGeometry x="154.5" width="1" height="40" as="geometry" />
        </mxCell>
        <mxCell id="xy4yI9VRdFkk8h6QiSj7-165" value="" style="rounded=0;whiteSpace=wrap;html=1;fillColor=#000000;strokeColor=none;" vertex="1" parent="xy4yI9VRdFkk8h6QiSj7-51">
          <mxGeometry x="164.5" width="1" height="40" as="geometry" />
        </mxCell>
        <mxCell id="xy4yI9VRdFkk8h6QiSj7-166" value="" style="rounded=0;whiteSpace=wrap;html=1;fillColor=#000000;strokeColor=none;" vertex="1" parent="xy4yI9VRdFkk8h6QiSj7-51">
          <mxGeometry x="174.5" width="1" height="40" as="geometry" />
        </mxCell>
        <mxCell id="xy4yI9VRdFkk8h6QiSj7-167" value="" style="rounded=0;whiteSpace=wrap;html=1;fillColor=#000000;strokeColor=none;" vertex="1" parent="xy4yI9VRdFkk8h6QiSj7-51">
          <mxGeometry x="168.5" width="1" height="40" as="geometry" />
        </mxCell>
        <mxCell id="xy4yI9VRdFkk8h6QiSj7-168" value="" style="rounded=0;whiteSpace=wrap;html=1;fillColor=#000000;strokeColor=none;" vertex="1" parent="xy4yI9VRdFkk8h6QiSj7-51">
          <mxGeometry x="178.5" width="1" height="40" as="geometry" />
        </mxCell>
        <mxCell id="xy4yI9VRdFkk8h6QiSj7-169" value="" style="rounded=0;whiteSpace=wrap;html=1;fillColor=#000000;strokeColor=none;" vertex="1" parent="xy4yI9VRdFkk8h6QiSj7-51">
          <mxGeometry x="188.5" width="1" height="40" as="geometry" />
        </mxCell>
        <mxCell id="xy4yI9VRdFkk8h6QiSj7-170" value="" style="rounded=0;whiteSpace=wrap;html=1;fillColor=#000000;strokeColor=none;" vertex="1" parent="xy4yI9VRdFkk8h6QiSj7-51">
          <mxGeometry x="203.5" width="1" height="40" as="geometry" />
        </mxCell>
        <mxCell id="xy4yI9VRdFkk8h6QiSj7-171" value="" style="rounded=0;whiteSpace=wrap;html=1;fillColor=#000000;strokeColor=none;" vertex="1" parent="xy4yI9VRdFkk8h6QiSj7-51">
          <mxGeometry x="213.5" width="1" height="40" as="geometry" />
        </mxCell>
        <mxCell id="xy4yI9VRdFkk8h6QiSj7-172" value="" style="rounded=0;whiteSpace=wrap;html=1;fillColor=#000000;strokeColor=none;" vertex="1" parent="xy4yI9VRdFkk8h6QiSj7-51">
          <mxGeometry x="223.5" width="1" height="40" as="geometry" />
        </mxCell>
        <mxCell id="xy4yI9VRdFkk8h6QiSj7-173" value="" style="rounded=0;whiteSpace=wrap;html=1;fillColor=#000000;strokeColor=none;" vertex="1" parent="xy4yI9VRdFkk8h6QiSj7-51">
          <mxGeometry x="57" width="1" height="40" as="geometry" />
        </mxCell>
        <mxCell id="xy4yI9VRdFkk8h6QiSj7-174" value="" style="rounded=0;whiteSpace=wrap;html=1;fillColor=#000000;strokeColor=none;" vertex="1" parent="xy4yI9VRdFkk8h6QiSj7-51">
          <mxGeometry x="67" width="1" height="40" as="geometry" />
        </mxCell>
        <mxCell id="xy4yI9VRdFkk8h6QiSj7-175" value="" style="rounded=0;whiteSpace=wrap;html=1;fillColor=#000000;strokeColor=none;" vertex="1" parent="xy4yI9VRdFkk8h6QiSj7-51">
          <mxGeometry x="77" width="1" height="40" as="geometry" />
        </mxCell>
        <mxCell id="xy4yI9VRdFkk8h6QiSj7-176" value="" style="rounded=0;whiteSpace=wrap;html=1;fillColor=#000000;strokeColor=none;" vertex="1" parent="xy4yI9VRdFkk8h6QiSj7-51">
          <mxGeometry x="92" width="1" height="40" as="geometry" />
        </mxCell>
        <mxCell id="xy4yI9VRdFkk8h6QiSj7-177" value="" style="rounded=0;whiteSpace=wrap;html=1;fillColor=#000000;strokeColor=none;" vertex="1" parent="xy4yI9VRdFkk8h6QiSj7-51">
          <mxGeometry x="102" width="1" height="40" as="geometry" />
        </mxCell>
        <mxCell id="xy4yI9VRdFkk8h6QiSj7-178" value="" style="rounded=0;whiteSpace=wrap;html=1;fillColor=#000000;strokeColor=none;" vertex="1" parent="xy4yI9VRdFkk8h6QiSj7-51">
          <mxGeometry x="112" width="1" height="40" as="geometry" />
        </mxCell>
        <mxCell id="xy4yI9VRdFkk8h6QiSj7-179" value="" style="rounded=0;whiteSpace=wrap;html=1;fillColor=#000000;strokeColor=none;" vertex="1" parent="xy4yI9VRdFkk8h6QiSj7-51">
          <mxGeometry x="106" width="1" height="40" as="geometry" />
        </mxCell>
        <mxCell id="xy4yI9VRdFkk8h6QiSj7-180" value="" style="rounded=0;whiteSpace=wrap;html=1;fillColor=#000000;strokeColor=none;" vertex="1" parent="xy4yI9VRdFkk8h6QiSj7-51">
          <mxGeometry x="116" width="1" height="40" as="geometry" />
        </mxCell>
        <mxCell id="xy4yI9VRdFkk8h6QiSj7-181" value="" style="rounded=0;whiteSpace=wrap;html=1;fillColor=#000000;strokeColor=none;" vertex="1" parent="xy4yI9VRdFkk8h6QiSj7-51">
          <mxGeometry x="126" width="1" height="40" as="geometry" />
        </mxCell>
        <mxCell id="xy4yI9VRdFkk8h6QiSj7-182" value="" style="rounded=0;whiteSpace=wrap;html=1;fillColor=#000000;strokeColor=none;" vertex="1" parent="xy4yI9VRdFkk8h6QiSj7-51">
          <mxGeometry x="141" width="1" height="40" as="geometry" />
        </mxCell>
        <mxCell id="xy4yI9VRdFkk8h6QiSj7-183" value="" style="rounded=0;whiteSpace=wrap;html=1;fillColor=#000000;strokeColor=none;" vertex="1" parent="xy4yI9VRdFkk8h6QiSj7-51">
          <mxGeometry x="151" width="1" height="40" as="geometry" />
        </mxCell>
        <mxCell id="xy4yI9VRdFkk8h6QiSj7-184" value="" style="rounded=0;whiteSpace=wrap;html=1;fillColor=#000000;strokeColor=none;" vertex="1" parent="xy4yI9VRdFkk8h6QiSj7-51">
          <mxGeometry x="161" width="1" height="40" as="geometry" />
        </mxCell>
        <mxCell id="xy4yI9VRdFkk8h6QiSj7-185" value="" style="rounded=0;whiteSpace=wrap;html=1;fillColor=#000000;strokeColor=none;" vertex="1" parent="xy4yI9VRdFkk8h6QiSj7-51">
          <mxGeometry x="169.5" width="1" height="40" as="geometry" />
        </mxCell>
        <mxCell id="xy4yI9VRdFkk8h6QiSj7-186" value="" style="rounded=0;whiteSpace=wrap;html=1;fillColor=#000000;strokeColor=none;" vertex="1" parent="xy4yI9VRdFkk8h6QiSj7-51">
          <mxGeometry x="179.5" width="1" height="40" as="geometry" />
        </mxCell>
        <mxCell id="xy4yI9VRdFkk8h6QiSj7-187" value="" style="rounded=0;whiteSpace=wrap;html=1;fillColor=#000000;strokeColor=none;" vertex="1" parent="xy4yI9VRdFkk8h6QiSj7-51">
          <mxGeometry x="189.5" width="1" height="40" as="geometry" />
        </mxCell>
        <mxCell id="xy4yI9VRdFkk8h6QiSj7-188" value="" style="rounded=0;whiteSpace=wrap;html=1;fillColor=#000000;strokeColor=none;" vertex="1" parent="xy4yI9VRdFkk8h6QiSj7-51">
          <mxGeometry x="204.5" width="1" height="40" as="geometry" />
        </mxCell>
        <mxCell id="xy4yI9VRdFkk8h6QiSj7-189" value="" style="rounded=0;whiteSpace=wrap;html=1;fillColor=#000000;strokeColor=none;" vertex="1" parent="xy4yI9VRdFkk8h6QiSj7-51">
          <mxGeometry x="214.5" width="1" height="40" as="geometry" />
        </mxCell>
        <mxCell id="xy4yI9VRdFkk8h6QiSj7-190" value="" style="rounded=0;whiteSpace=wrap;html=1;fillColor=#000000;strokeColor=none;" vertex="1" parent="xy4yI9VRdFkk8h6QiSj7-51">
          <mxGeometry x="224.5" width="1" height="40" as="geometry" />
        </mxCell>
        <mxCell id="xy4yI9VRdFkk8h6QiSj7-191" value="" style="rounded=0;whiteSpace=wrap;html=1;fillColor=#000000;strokeColor=none;" vertex="1" parent="xy4yI9VRdFkk8h6QiSj7-51">
          <mxGeometry x="218.5" width="1" height="40" as="geometry" />
        </mxCell>
        <mxCell id="xy4yI9VRdFkk8h6QiSj7-192" value="" style="rounded=0;whiteSpace=wrap;html=1;fillColor=#000000;strokeColor=none;" vertex="1" parent="xy4yI9VRdFkk8h6QiSj7-51">
          <mxGeometry x="228.5" width="1" height="40" as="geometry" />
        </mxCell>
        <mxCell id="xy4yI9VRdFkk8h6QiSj7-193" value="" style="rounded=0;whiteSpace=wrap;html=1;fillColor=#000000;strokeColor=none;" vertex="1" parent="xy4yI9VRdFkk8h6QiSj7-51">
          <mxGeometry x="238.5" width="1" height="40" as="geometry" />
        </mxCell>
        <mxCell id="xy4yI9VRdFkk8h6QiSj7-194" value="" style="rounded=0;whiteSpace=wrap;html=1;fillColor=#000000;strokeColor=none;" vertex="1" parent="xy4yI9VRdFkk8h6QiSj7-51">
          <mxGeometry x="253.5" width="1" height="40" as="geometry" />
        </mxCell>
        <mxCell id="xy4yI9VRdFkk8h6QiSj7-195" value="" style="rounded=0;whiteSpace=wrap;html=1;fillColor=#000000;strokeColor=none;" vertex="1" parent="xy4yI9VRdFkk8h6QiSj7-51">
          <mxGeometry x="263.5" width="1" height="40" as="geometry" />
        </mxCell>
        <mxCell id="xy4yI9VRdFkk8h6QiSj7-196" value="" style="rounded=0;whiteSpace=wrap;html=1;fillColor=#000000;strokeColor=none;" vertex="1" parent="xy4yI9VRdFkk8h6QiSj7-51">
          <mxGeometry x="273.5" width="1" height="40" as="geometry" />
        </mxCell>
        <mxCell id="xy4yI9VRdFkk8h6QiSj7-197" value="" style="rounded=0;whiteSpace=wrap;html=1;fillColor=#000000;strokeColor=none;" vertex="1" parent="xy4yI9VRdFkk8h6QiSj7-51">
          <mxGeometry x="42" width="1" height="40" as="geometry" />
        </mxCell>
        <mxCell id="xy4yI9VRdFkk8h6QiSj7-198" value="" style="rounded=0;whiteSpace=wrap;html=1;fillColor=#000000;strokeColor=none;" vertex="1" parent="xy4yI9VRdFkk8h6QiSj7-51">
          <mxGeometry x="52" width="1" height="40" as="geometry" />
        </mxCell>
        <mxCell id="xy4yI9VRdFkk8h6QiSj7-199" value="" style="rounded=0;whiteSpace=wrap;html=1;fillColor=#000000;strokeColor=none;" vertex="1" parent="xy4yI9VRdFkk8h6QiSj7-51">
          <mxGeometry x="62" width="1" height="40" as="geometry" />
        </mxCell>
        <mxCell id="xy4yI9VRdFkk8h6QiSj7-200" value="" style="rounded=0;whiteSpace=wrap;html=1;fillColor=#000000;strokeColor=none;" vertex="1" parent="xy4yI9VRdFkk8h6QiSj7-51">
          <mxGeometry x="77" width="1" height="40" as="geometry" />
        </mxCell>
        <mxCell id="xy4yI9VRdFkk8h6QiSj7-201" value="" style="rounded=0;whiteSpace=wrap;html=1;fillColor=#000000;strokeColor=none;" vertex="1" parent="xy4yI9VRdFkk8h6QiSj7-51">
          <mxGeometry x="87" width="1" height="40" as="geometry" />
        </mxCell>
        <mxCell id="xy4yI9VRdFkk8h6QiSj7-202" value="" style="rounded=0;whiteSpace=wrap;html=1;fillColor=#000000;strokeColor=none;" vertex="1" parent="xy4yI9VRdFkk8h6QiSj7-51">
          <mxGeometry x="97" width="1" height="40" as="geometry" />
        </mxCell>
        <mxCell id="xy4yI9VRdFkk8h6QiSj7-203" value="" style="rounded=0;whiteSpace=wrap;html=1;fillColor=#000000;strokeColor=none;" vertex="1" parent="xy4yI9VRdFkk8h6QiSj7-51">
          <mxGeometry x="91" width="1" height="40" as="geometry" />
        </mxCell>
        <mxCell id="xy4yI9VRdFkk8h6QiSj7-204" value="" style="rounded=0;whiteSpace=wrap;html=1;fillColor=#000000;strokeColor=none;" vertex="1" parent="xy4yI9VRdFkk8h6QiSj7-51">
          <mxGeometry x="101" width="1" height="40" as="geometry" />
        </mxCell>
        <mxCell id="xy4yI9VRdFkk8h6QiSj7-205" value="" style="rounded=0;whiteSpace=wrap;html=1;fillColor=#000000;strokeColor=none;" vertex="1" parent="xy4yI9VRdFkk8h6QiSj7-51">
          <mxGeometry x="111" width="1" height="40" as="geometry" />
        </mxCell>
        <mxCell id="xy4yI9VRdFkk8h6QiSj7-206" value="" style="rounded=0;whiteSpace=wrap;html=1;fillColor=#000000;strokeColor=none;" vertex="1" parent="xy4yI9VRdFkk8h6QiSj7-51">
          <mxGeometry x="126" width="1" height="40" as="geometry" />
        </mxCell>
        <mxCell id="xy4yI9VRdFkk8h6QiSj7-207" value="" style="rounded=0;whiteSpace=wrap;html=1;fillColor=#000000;strokeColor=none;" vertex="1" parent="xy4yI9VRdFkk8h6QiSj7-51">
          <mxGeometry x="136" width="1" height="40" as="geometry" />
        </mxCell>
        <mxCell id="xy4yI9VRdFkk8h6QiSj7-208" value="" style="rounded=0;whiteSpace=wrap;html=1;fillColor=#000000;strokeColor=none;" vertex="1" parent="xy4yI9VRdFkk8h6QiSj7-51">
          <mxGeometry x="146" width="1" height="40" as="geometry" />
        </mxCell>
        <mxCell id="xy4yI9VRdFkk8h6QiSj7-209" value="" style="rounded=0;whiteSpace=wrap;html=1;fillColor=#000000;strokeColor=none;" vertex="1" parent="xy4yI9VRdFkk8h6QiSj7-51">
          <mxGeometry x="154.5" width="1" height="40" as="geometry" />
        </mxCell>
        <mxCell id="xy4yI9VRdFkk8h6QiSj7-210" value="" style="rounded=0;whiteSpace=wrap;html=1;fillColor=#000000;strokeColor=none;" vertex="1" parent="xy4yI9VRdFkk8h6QiSj7-51">
          <mxGeometry x="164.5" width="1" height="40" as="geometry" />
        </mxCell>
        <mxCell id="xy4yI9VRdFkk8h6QiSj7-211" value="" style="rounded=0;whiteSpace=wrap;html=1;fillColor=#000000;strokeColor=none;" vertex="1" parent="xy4yI9VRdFkk8h6QiSj7-51">
          <mxGeometry x="174.5" width="1" height="40" as="geometry" />
        </mxCell>
        <mxCell id="xy4yI9VRdFkk8h6QiSj7-212" value="" style="rounded=0;whiteSpace=wrap;html=1;fillColor=#000000;strokeColor=none;" vertex="1" parent="xy4yI9VRdFkk8h6QiSj7-51">
          <mxGeometry x="189.5" width="1" height="40" as="geometry" />
        </mxCell>
        <mxCell id="xy4yI9VRdFkk8h6QiSj7-213" value="" style="rounded=0;whiteSpace=wrap;html=1;fillColor=#000000;strokeColor=none;" vertex="1" parent="xy4yI9VRdFkk8h6QiSj7-51">
          <mxGeometry x="199.5" width="1" height="40" as="geometry" />
        </mxCell>
        <mxCell id="xy4yI9VRdFkk8h6QiSj7-214" value="" style="rounded=0;whiteSpace=wrap;html=1;fillColor=#000000;strokeColor=none;" vertex="1" parent="xy4yI9VRdFkk8h6QiSj7-51">
          <mxGeometry x="209.5" width="1" height="40" as="geometry" />
        </mxCell>
        <mxCell id="xy4yI9VRdFkk8h6QiSj7-215" value="" style="rounded=0;whiteSpace=wrap;html=1;fillColor=#000000;strokeColor=none;" vertex="1" parent="xy4yI9VRdFkk8h6QiSj7-51">
          <mxGeometry x="203.5" width="1" height="40" as="geometry" />
        </mxCell>
        <mxCell id="xy4yI9VRdFkk8h6QiSj7-216" value="" style="rounded=0;whiteSpace=wrap;html=1;fillColor=#000000;strokeColor=none;" vertex="1" parent="xy4yI9VRdFkk8h6QiSj7-51">
          <mxGeometry x="213.5" width="1" height="40" as="geometry" />
        </mxCell>
        <mxCell id="xy4yI9VRdFkk8h6QiSj7-217" value="" style="rounded=0;whiteSpace=wrap;html=1;fillColor=#000000;strokeColor=none;" vertex="1" parent="xy4yI9VRdFkk8h6QiSj7-51">
          <mxGeometry x="223.5" width="1" height="40" as="geometry" />
        </mxCell>
        <mxCell id="xy4yI9VRdFkk8h6QiSj7-218" value="" style="rounded=0;whiteSpace=wrap;html=1;fillColor=#000000;strokeColor=none;" vertex="1" parent="xy4yI9VRdFkk8h6QiSj7-51">
          <mxGeometry x="238.5" width="1" height="40" as="geometry" />
        </mxCell>
        <mxCell id="xy4yI9VRdFkk8h6QiSj7-219" value="" style="rounded=0;whiteSpace=wrap;html=1;fillColor=#000000;strokeColor=none;" vertex="1" parent="xy4yI9VRdFkk8h6QiSj7-51">
          <mxGeometry x="248.5" width="1" height="40" as="geometry" />
        </mxCell>
        <mxCell id="xy4yI9VRdFkk8h6QiSj7-220" value="" style="rounded=0;whiteSpace=wrap;html=1;fillColor=#000000;strokeColor=none;" vertex="1" parent="xy4yI9VRdFkk8h6QiSj7-51">
          <mxGeometry x="258.5" width="1" height="40" as="geometry" />
        </mxCell>
        <mxCell id="xy4yI9VRdFkk8h6QiSj7-221" value="" style="rounded=0;whiteSpace=wrap;html=1;fillColor=#000000;strokeColor=none;" vertex="1" parent="xy4yI9VRdFkk8h6QiSj7-51">
          <mxGeometry x="92" width="1" height="40" as="geometry" />
        </mxCell>
        <mxCell id="xy4yI9VRdFkk8h6QiSj7-222" value="" style="rounded=0;whiteSpace=wrap;html=1;fillColor=#000000;strokeColor=none;" vertex="1" parent="xy4yI9VRdFkk8h6QiSj7-51">
          <mxGeometry x="102" width="1" height="40" as="geometry" />
        </mxCell>
        <mxCell id="xy4yI9VRdFkk8h6QiSj7-223" value="" style="rounded=0;whiteSpace=wrap;html=1;fillColor=#000000;strokeColor=none;" vertex="1" parent="xy4yI9VRdFkk8h6QiSj7-51">
          <mxGeometry x="112" width="1" height="40" as="geometry" />
        </mxCell>
        <mxCell id="xy4yI9VRdFkk8h6QiSj7-224" value="" style="rounded=0;whiteSpace=wrap;html=1;fillColor=#000000;strokeColor=none;" vertex="1" parent="xy4yI9VRdFkk8h6QiSj7-51">
          <mxGeometry x="127" width="1" height="40" as="geometry" />
        </mxCell>
        <mxCell id="xy4yI9VRdFkk8h6QiSj7-225" value="" style="rounded=0;whiteSpace=wrap;html=1;fillColor=#000000;strokeColor=none;" vertex="1" parent="xy4yI9VRdFkk8h6QiSj7-51">
          <mxGeometry x="137" width="1" height="40" as="geometry" />
        </mxCell>
        <mxCell id="xy4yI9VRdFkk8h6QiSj7-226" value="" style="rounded=0;whiteSpace=wrap;html=1;fillColor=#000000;strokeColor=none;" vertex="1" parent="xy4yI9VRdFkk8h6QiSj7-51">
          <mxGeometry x="147" width="1" height="40" as="geometry" />
        </mxCell>
        <mxCell id="xy4yI9VRdFkk8h6QiSj7-227" value="" style="rounded=0;whiteSpace=wrap;html=1;fillColor=#000000;strokeColor=none;" vertex="1" parent="xy4yI9VRdFkk8h6QiSj7-51">
          <mxGeometry x="141" width="1" height="40" as="geometry" />
        </mxCell>
        <mxCell id="xy4yI9VRdFkk8h6QiSj7-228" value="" style="rounded=0;whiteSpace=wrap;html=1;fillColor=#000000;strokeColor=none;" vertex="1" parent="xy4yI9VRdFkk8h6QiSj7-51">
          <mxGeometry x="151" width="1" height="40" as="geometry" />
        </mxCell>
        <mxCell id="xy4yI9VRdFkk8h6QiSj7-229" value="" style="rounded=0;whiteSpace=wrap;html=1;fillColor=#000000;strokeColor=none;" vertex="1" parent="xy4yI9VRdFkk8h6QiSj7-51">
          <mxGeometry x="161" width="1" height="40" as="geometry" />
        </mxCell>
        <mxCell id="xy4yI9VRdFkk8h6QiSj7-230" value="" style="rounded=0;whiteSpace=wrap;html=1;fillColor=#000000;strokeColor=none;" vertex="1" parent="xy4yI9VRdFkk8h6QiSj7-51">
          <mxGeometry x="176" width="1" height="40" as="geometry" />
        </mxCell>
        <mxCell id="xy4yI9VRdFkk8h6QiSj7-231" value="" style="rounded=0;whiteSpace=wrap;html=1;fillColor=#000000;strokeColor=none;" vertex="1" parent="xy4yI9VRdFkk8h6QiSj7-51">
          <mxGeometry x="186" width="1" height="40" as="geometry" />
        </mxCell>
        <mxCell id="xy4yI9VRdFkk8h6QiSj7-232" value="" style="rounded=0;whiteSpace=wrap;html=1;fillColor=#000000;strokeColor=none;" vertex="1" parent="xy4yI9VRdFkk8h6QiSj7-51">
          <mxGeometry x="196" width="1" height="40" as="geometry" />
        </mxCell>
        <mxCell id="xy4yI9VRdFkk8h6QiSj7-233" value="" style="rounded=0;whiteSpace=wrap;html=1;fillColor=#000000;strokeColor=none;" vertex="1" parent="xy4yI9VRdFkk8h6QiSj7-51">
          <mxGeometry x="204.5" width="1" height="40" as="geometry" />
        </mxCell>
        <mxCell id="xy4yI9VRdFkk8h6QiSj7-234" value="" style="rounded=0;whiteSpace=wrap;html=1;fillColor=#000000;strokeColor=none;" vertex="1" parent="xy4yI9VRdFkk8h6QiSj7-51">
          <mxGeometry x="214.5" width="1" height="40" as="geometry" />
        </mxCell>
        <mxCell id="xy4yI9VRdFkk8h6QiSj7-235" value="" style="rounded=0;whiteSpace=wrap;html=1;fillColor=#000000;strokeColor=none;" vertex="1" parent="xy4yI9VRdFkk8h6QiSj7-51">
          <mxGeometry x="224.5" width="1" height="40" as="geometry" />
        </mxCell>
        <mxCell id="xy4yI9VRdFkk8h6QiSj7-236" value="" style="rounded=0;whiteSpace=wrap;html=1;fillColor=#000000;strokeColor=none;" vertex="1" parent="xy4yI9VRdFkk8h6QiSj7-51">
          <mxGeometry x="239.5" width="1" height="40" as="geometry" />
        </mxCell>
        <mxCell id="xy4yI9VRdFkk8h6QiSj7-237" value="" style="rounded=0;whiteSpace=wrap;html=1;fillColor=#000000;strokeColor=none;" vertex="1" parent="xy4yI9VRdFkk8h6QiSj7-51">
          <mxGeometry x="249.5" width="1" height="40" as="geometry" />
        </mxCell>
        <mxCell id="xy4yI9VRdFkk8h6QiSj7-238" value="" style="rounded=0;whiteSpace=wrap;html=1;fillColor=#000000;strokeColor=none;" vertex="1" parent="xy4yI9VRdFkk8h6QiSj7-51">
          <mxGeometry x="259.5" width="1" height="40" as="geometry" />
        </mxCell>
        <mxCell id="xy4yI9VRdFkk8h6QiSj7-239" value="" style="rounded=0;whiteSpace=wrap;html=1;fillColor=#000000;strokeColor=none;" vertex="1" parent="xy4yI9VRdFkk8h6QiSj7-51">
          <mxGeometry x="253.5" width="1" height="40" as="geometry" />
        </mxCell>
        <mxCell id="xy4yI9VRdFkk8h6QiSj7-240" value="" style="rounded=0;whiteSpace=wrap;html=1;fillColor=#000000;strokeColor=none;" vertex="1" parent="xy4yI9VRdFkk8h6QiSj7-51">
          <mxGeometry x="263.5" width="1" height="40" as="geometry" />
        </mxCell>
        <mxCell id="xy4yI9VRdFkk8h6QiSj7-241" value="" style="rounded=0;whiteSpace=wrap;html=1;fillColor=#000000;strokeColor=none;" vertex="1" parent="xy4yI9VRdFkk8h6QiSj7-51">
          <mxGeometry x="273.5" width="1" height="40" as="geometry" />
        </mxCell>
        <mxCell id="xy4yI9VRdFkk8h6QiSj7-242" value="" style="rounded=0;whiteSpace=wrap;html=1;fillColor=#000000;strokeColor=none;" vertex="1" parent="xy4yI9VRdFkk8h6QiSj7-51">
          <mxGeometry x="288.5" width="1" height="40" as="geometry" />
        </mxCell>
        <mxCell id="xy4yI9VRdFkk8h6QiSj7-243" value="" style="rounded=0;whiteSpace=wrap;html=1;fillColor=#000000;strokeColor=none;" vertex="1" parent="xy4yI9VRdFkk8h6QiSj7-51">
          <mxGeometry x="298.5" width="1" height="40" as="geometry" />
        </mxCell>
        <mxCell id="xy4yI9VRdFkk8h6QiSj7-244" value="" style="rounded=0;whiteSpace=wrap;html=1;fillColor=#000000;strokeColor=none;" vertex="1" parent="xy4yI9VRdFkk8h6QiSj7-51">
          <mxGeometry x="308.5" width="1" height="40" as="geometry" />
        </mxCell>
        <mxCell id="xy4yI9VRdFkk8h6QiSj7-245" value="" style="rounded=0;whiteSpace=wrap;html=1;fillColor=#000000;strokeColor=none;" vertex="1" parent="xy4yI9VRdFkk8h6QiSj7-51">
          <mxGeometry x="12" width="1" height="40" as="geometry" />
        </mxCell>
        <mxCell id="xy4yI9VRdFkk8h6QiSj7-246" value="" style="rounded=0;whiteSpace=wrap;html=1;fillColor=#000000;strokeColor=none;" vertex="1" parent="xy4yI9VRdFkk8h6QiSj7-51">
          <mxGeometry x="22" width="1" height="40" as="geometry" />
        </mxCell>
        <mxCell id="xy4yI9VRdFkk8h6QiSj7-247" value="" style="rounded=0;whiteSpace=wrap;html=1;fillColor=#000000;strokeColor=none;" vertex="1" parent="xy4yI9VRdFkk8h6QiSj7-51">
          <mxGeometry x="32" width="1" height="40" as="geometry" />
        </mxCell>
        <mxCell id="xy4yI9VRdFkk8h6QiSj7-248" value="" style="rounded=0;whiteSpace=wrap;html=1;fillColor=#000000;strokeColor=none;" vertex="1" parent="xy4yI9VRdFkk8h6QiSj7-51">
          <mxGeometry x="47" width="1" height="40" as="geometry" />
        </mxCell>
        <mxCell id="xy4yI9VRdFkk8h6QiSj7-249" value="" style="rounded=0;whiteSpace=wrap;html=1;fillColor=#000000;strokeColor=none;" vertex="1" parent="xy4yI9VRdFkk8h6QiSj7-51">
          <mxGeometry x="57" width="1" height="40" as="geometry" />
        </mxCell>
        <mxCell id="xy4yI9VRdFkk8h6QiSj7-250" value="" style="rounded=0;whiteSpace=wrap;html=1;fillColor=#000000;strokeColor=none;" vertex="1" parent="xy4yI9VRdFkk8h6QiSj7-51">
          <mxGeometry x="67" width="1" height="40" as="geometry" />
        </mxCell>
        <mxCell id="xy4yI9VRdFkk8h6QiSj7-251" value="" style="rounded=0;whiteSpace=wrap;html=1;fillColor=#000000;strokeColor=none;" vertex="1" parent="xy4yI9VRdFkk8h6QiSj7-51">
          <mxGeometry x="61" width="1" height="40" as="geometry" />
        </mxCell>
        <mxCell id="xy4yI9VRdFkk8h6QiSj7-252" value="" style="rounded=0;whiteSpace=wrap;html=1;fillColor=#000000;strokeColor=none;" vertex="1" parent="xy4yI9VRdFkk8h6QiSj7-51">
          <mxGeometry x="71" width="1" height="40" as="geometry" />
        </mxCell>
        <mxCell id="xy4yI9VRdFkk8h6QiSj7-253" value="" style="rounded=0;whiteSpace=wrap;html=1;fillColor=#000000;strokeColor=none;" vertex="1" parent="xy4yI9VRdFkk8h6QiSj7-51">
          <mxGeometry x="81" width="1" height="40" as="geometry" />
        </mxCell>
        <mxCell id="xy4yI9VRdFkk8h6QiSj7-254" value="" style="rounded=0;whiteSpace=wrap;html=1;fillColor=#000000;strokeColor=none;" vertex="1" parent="xy4yI9VRdFkk8h6QiSj7-51">
          <mxGeometry x="96" width="1" height="40" as="geometry" />
        </mxCell>
        <mxCell id="xy4yI9VRdFkk8h6QiSj7-255" value="" style="rounded=0;whiteSpace=wrap;html=1;fillColor=#000000;strokeColor=none;" vertex="1" parent="xy4yI9VRdFkk8h6QiSj7-51">
          <mxGeometry x="62" width="1" height="40" as="geometry" />
        </mxCell>
        <mxCell id="xy4yI9VRdFkk8h6QiSj7-256" value="" style="rounded=0;whiteSpace=wrap;html=1;fillColor=#000000;strokeColor=none;" vertex="1" parent="xy4yI9VRdFkk8h6QiSj7-51">
          <mxGeometry x="72" width="1" height="40" as="geometry" />
        </mxCell>
        <mxCell id="xy4yI9VRdFkk8h6QiSj7-257" value="" style="rounded=0;whiteSpace=wrap;html=1;fillColor=#000000;strokeColor=none;" vertex="1" parent="xy4yI9VRdFkk8h6QiSj7-51">
          <mxGeometry x="82" width="1" height="40" as="geometry" />
        </mxCell>
        <mxCell id="xy4yI9VRdFkk8h6QiSj7-258" value="" style="rounded=0;whiteSpace=wrap;html=1;fillColor=#000000;strokeColor=none;" vertex="1" parent="xy4yI9VRdFkk8h6QiSj7-51">
          <mxGeometry x="97" width="1" height="40" as="geometry" />
        </mxCell>
        <mxCell id="xy4yI9VRdFkk8h6QiSj7-259" value="" style="rounded=0;whiteSpace=wrap;html=1;fillColor=#000000;strokeColor=none;" vertex="1" parent="xy4yI9VRdFkk8h6QiSj7-51">
          <mxGeometry x="47" width="1" height="40" as="geometry" />
        </mxCell>
        <mxCell id="xy4yI9VRdFkk8h6QiSj7-260" value="" style="rounded=0;whiteSpace=wrap;html=1;fillColor=#000000;strokeColor=none;" vertex="1" parent="xy4yI9VRdFkk8h6QiSj7-51">
          <mxGeometry x="57" width="1" height="40" as="geometry" />
        </mxCell>
        <mxCell id="xy4yI9VRdFkk8h6QiSj7-261" value="" style="rounded=0;whiteSpace=wrap;html=1;fillColor=#000000;strokeColor=none;" vertex="1" parent="xy4yI9VRdFkk8h6QiSj7-51">
          <mxGeometry x="67" width="1" height="40" as="geometry" />
        </mxCell>
        <mxCell id="xy4yI9VRdFkk8h6QiSj7-262" value="" style="rounded=0;whiteSpace=wrap;html=1;fillColor=#000000;strokeColor=none;" vertex="1" parent="xy4yI9VRdFkk8h6QiSj7-51">
          <mxGeometry x="82" width="1" height="40" as="geometry" />
        </mxCell>
        <mxCell id="xy4yI9VRdFkk8h6QiSj7-263" value="" style="rounded=0;whiteSpace=wrap;html=1;fillColor=#000000;strokeColor=none;" vertex="1" parent="xy4yI9VRdFkk8h6QiSj7-51">
          <mxGeometry x="92" width="1" height="40" as="geometry" />
        </mxCell>
        <mxCell id="xy4yI9VRdFkk8h6QiSj7-264" value="" style="rounded=0;whiteSpace=wrap;html=1;fillColor=#000000;strokeColor=none;" vertex="1" parent="xy4yI9VRdFkk8h6QiSj7-51">
          <mxGeometry x="96" width="1" height="40" as="geometry" />
        </mxCell>
        <mxCell id="xy4yI9VRdFkk8h6QiSj7-265" value="" style="rounded=0;whiteSpace=wrap;html=1;fillColor=#000000;strokeColor=none;" vertex="1" parent="xy4yI9VRdFkk8h6QiSj7-51">
          <mxGeometry x="97" width="1" height="40" as="geometry" />
        </mxCell>
        <mxCell id="xy4yI9VRdFkk8h6QiSj7-266" value="" style="rounded=0;whiteSpace=wrap;html=1;fillColor=#000000;strokeColor=none;" vertex="1" parent="xy4yI9VRdFkk8h6QiSj7-51">
          <mxGeometry x="8" width="1" height="40" as="geometry" />
        </mxCell>
        <mxCell id="xy4yI9VRdFkk8h6QiSj7-267" value="" style="rounded=0;whiteSpace=wrap;html=1;fillColor=#000000;strokeColor=none;" vertex="1" parent="xy4yI9VRdFkk8h6QiSj7-51">
          <mxGeometry x="18" width="1" height="40" as="geometry" />
        </mxCell>
        <mxCell id="xy4yI9VRdFkk8h6QiSj7-268" value="" style="rounded=0;whiteSpace=wrap;html=1;fillColor=#000000;strokeColor=none;" vertex="1" parent="xy4yI9VRdFkk8h6QiSj7-51">
          <mxGeometry x="28" width="1" height="40" as="geometry" />
        </mxCell>
        <mxCell id="xy4yI9VRdFkk8h6QiSj7-269" value="" style="rounded=0;whiteSpace=wrap;html=1;fillColor=#000000;strokeColor=none;" vertex="1" parent="xy4yI9VRdFkk8h6QiSj7-51">
          <mxGeometry x="43" width="1" height="40" as="geometry" />
        </mxCell>
        <mxCell id="xy4yI9VRdFkk8h6QiSj7-270" value="" style="rounded=0;whiteSpace=wrap;html=1;fillColor=#000000;strokeColor=none;" vertex="1" parent="xy4yI9VRdFkk8h6QiSj7-51">
          <mxGeometry x="53" width="1" height="40" as="geometry" />
        </mxCell>
        <mxCell id="xy4yI9VRdFkk8h6QiSj7-271" value="" style="rounded=0;whiteSpace=wrap;html=1;fillColor=#000000;strokeColor=none;" vertex="1" parent="xy4yI9VRdFkk8h6QiSj7-51">
          <mxGeometry x="63" width="1" height="40" as="geometry" />
        </mxCell>
        <mxCell id="xy4yI9VRdFkk8h6QiSj7-272" value="" style="rounded=0;whiteSpace=wrap;html=1;fillColor=#000000;strokeColor=none;" vertex="1" parent="xy4yI9VRdFkk8h6QiSj7-51">
          <mxGeometry x="57" width="1" height="40" as="geometry" />
        </mxCell>
        <mxCell id="xy4yI9VRdFkk8h6QiSj7-273" value="" style="rounded=0;whiteSpace=wrap;html=1;fillColor=#000000;strokeColor=none;" vertex="1" parent="xy4yI9VRdFkk8h6QiSj7-51">
          <mxGeometry x="67" width="1" height="40" as="geometry" />
        </mxCell>
        <mxCell id="xy4yI9VRdFkk8h6QiSj7-274" value="" style="rounded=0;whiteSpace=wrap;html=1;fillColor=#000000;strokeColor=none;" vertex="1" parent="xy4yI9VRdFkk8h6QiSj7-51">
          <mxGeometry x="77" width="1" height="40" as="geometry" />
        </mxCell>
        <mxCell id="xy4yI9VRdFkk8h6QiSj7-275" value="" style="rounded=0;whiteSpace=wrap;html=1;fillColor=#000000;strokeColor=none;" vertex="1" parent="xy4yI9VRdFkk8h6QiSj7-51">
          <mxGeometry x="92" width="1" height="40" as="geometry" />
        </mxCell>
        <mxCell id="xy4yI9VRdFkk8h6QiSj7-276" value="" style="rounded=0;whiteSpace=wrap;html=1;fillColor=#000000;strokeColor=none;" vertex="1" parent="xy4yI9VRdFkk8h6QiSj7-51">
          <mxGeometry x="58" width="1" height="40" as="geometry" />
        </mxCell>
        <mxCell id="xy4yI9VRdFkk8h6QiSj7-277" value="" style="rounded=0;whiteSpace=wrap;html=1;fillColor=#000000;strokeColor=none;" vertex="1" parent="xy4yI9VRdFkk8h6QiSj7-51">
          <mxGeometry x="68" width="1" height="40" as="geometry" />
        </mxCell>
        <mxCell id="xy4yI9VRdFkk8h6QiSj7-278" value="" style="rounded=0;whiteSpace=wrap;html=1;fillColor=#000000;strokeColor=none;" vertex="1" parent="xy4yI9VRdFkk8h6QiSj7-51">
          <mxGeometry x="78" width="1" height="40" as="geometry" />
        </mxCell>
        <mxCell id="xy4yI9VRdFkk8h6QiSj7-279" value="" style="rounded=0;whiteSpace=wrap;html=1;fillColor=#000000;strokeColor=none;" vertex="1" parent="xy4yI9VRdFkk8h6QiSj7-51">
          <mxGeometry x="93" width="1" height="40" as="geometry" />
        </mxCell>
        <mxCell id="xy4yI9VRdFkk8h6QiSj7-280" value="" style="rounded=0;whiteSpace=wrap;html=1;fillColor=#000000;strokeColor=none;" vertex="1" parent="xy4yI9VRdFkk8h6QiSj7-51">
          <mxGeometry x="43" width="1" height="40" as="geometry" />
        </mxCell>
        <mxCell id="xy4yI9VRdFkk8h6QiSj7-281" value="" style="rounded=0;whiteSpace=wrap;html=1;fillColor=#000000;strokeColor=none;" vertex="1" parent="xy4yI9VRdFkk8h6QiSj7-51">
          <mxGeometry x="53" width="1" height="40" as="geometry" />
        </mxCell>
        <mxCell id="xy4yI9VRdFkk8h6QiSj7-282" value="" style="rounded=0;whiteSpace=wrap;html=1;fillColor=#000000;strokeColor=none;" vertex="1" parent="xy4yI9VRdFkk8h6QiSj7-51">
          <mxGeometry x="63" width="1" height="40" as="geometry" />
        </mxCell>
        <mxCell id="xy4yI9VRdFkk8h6QiSj7-283" value="" style="rounded=0;whiteSpace=wrap;html=1;fillColor=#000000;strokeColor=none;" vertex="1" parent="xy4yI9VRdFkk8h6QiSj7-51">
          <mxGeometry x="78" width="1" height="40" as="geometry" />
        </mxCell>
        <mxCell id="xy4yI9VRdFkk8h6QiSj7-284" value="" style="rounded=0;whiteSpace=wrap;html=1;fillColor=#000000;strokeColor=none;" vertex="1" parent="xy4yI9VRdFkk8h6QiSj7-51">
          <mxGeometry x="88" width="1" height="40" as="geometry" />
        </mxCell>
        <mxCell id="xy4yI9VRdFkk8h6QiSj7-285" value="" style="rounded=0;whiteSpace=wrap;html=1;fillColor=#000000;strokeColor=none;" vertex="1" parent="xy4yI9VRdFkk8h6QiSj7-51">
          <mxGeometry x="92" width="1" height="40" as="geometry" />
        </mxCell>
        <mxCell id="xy4yI9VRdFkk8h6QiSj7-286" value="" style="rounded=0;whiteSpace=wrap;html=1;fillColor=#000000;strokeColor=none;" vertex="1" parent="xy4yI9VRdFkk8h6QiSj7-51">
          <mxGeometry x="93" width="1" height="40" as="geometry" />
        </mxCell>
        <mxCell id="xy4yI9VRdFkk8h6QiSj7-287" value="" style="rounded=0;whiteSpace=wrap;html=1;fillColor=#000000;strokeColor=none;" vertex="1" parent="xy4yI9VRdFkk8h6QiSj7-51">
          <mxGeometry x="277.5" width="1" height="40" as="geometry" />
        </mxCell>
        <mxCell id="xy4yI9VRdFkk8h6QiSj7-288" value="" style="rounded=0;whiteSpace=wrap;html=1;fillColor=#000000;strokeColor=none;" vertex="1" parent="xy4yI9VRdFkk8h6QiSj7-51">
          <mxGeometry x="287.5" width="1" height="40" as="geometry" />
        </mxCell>
        <mxCell id="xy4yI9VRdFkk8h6QiSj7-289" value="" style="rounded=0;whiteSpace=wrap;html=1;fillColor=#000000;strokeColor=none;" vertex="1" parent="xy4yI9VRdFkk8h6QiSj7-51">
          <mxGeometry x="297.5" width="1" height="40" as="geometry" />
        </mxCell>
        <mxCell id="xy4yI9VRdFkk8h6QiSj7-290" value="" style="rounded=0;whiteSpace=wrap;html=1;fillColor=#000000;strokeColor=none;" vertex="1" parent="xy4yI9VRdFkk8h6QiSj7-51">
          <mxGeometry x="282.5" width="1" height="40" as="geometry" />
        </mxCell>
        <mxCell id="xy4yI9VRdFkk8h6QiSj7-291" value="" style="rounded=0;whiteSpace=wrap;html=1;fillColor=#000000;strokeColor=none;" vertex="1" parent="xy4yI9VRdFkk8h6QiSj7-51">
          <mxGeometry x="283.5" width="1" height="40" as="geometry" />
        </mxCell>
        <mxCell id="xy4yI9VRdFkk8h6QiSj7-292" value="" style="rounded=0;whiteSpace=wrap;html=1;fillColor=#000000;strokeColor=none;" vertex="1" parent="xy4yI9VRdFkk8h6QiSj7-51">
          <mxGeometry x="277.5" width="1" height="40" as="geometry" />
        </mxCell>
        <mxCell id="xy4yI9VRdFkk8h6QiSj7-293" value="" style="rounded=0;whiteSpace=wrap;html=1;fillColor=#000000;strokeColor=none;" vertex="1" parent="xy4yI9VRdFkk8h6QiSj7-51">
          <mxGeometry x="287.5" width="1" height="40" as="geometry" />
        </mxCell>
        <mxCell id="xy4yI9VRdFkk8h6QiSj7-294" value="" style="rounded=0;whiteSpace=wrap;html=1;fillColor=#000000;strokeColor=none;" vertex="1" parent="xy4yI9VRdFkk8h6QiSj7-51">
          <mxGeometry x="297.5" width="1" height="40" as="geometry" />
        </mxCell>
        <mxCell id="xy4yI9VRdFkk8h6QiSj7-295" value="" style="rounded=0;whiteSpace=wrap;html=1;fillColor=#000000;strokeColor=none;" vertex="1" parent="xy4yI9VRdFkk8h6QiSj7-51">
          <mxGeometry x="283.5" width="1" height="40" as="geometry" />
        </mxCell>
        <mxCell id="xy4yI9VRdFkk8h6QiSj7-296" value="" style="rounded=0;whiteSpace=wrap;html=1;fillColor=#000000;strokeColor=none;" vertex="1" parent="xy4yI9VRdFkk8h6QiSj7-51">
          <mxGeometry x="293.5" width="1" height="40" as="geometry" />
        </mxCell>
        <mxCell id="xy4yI9VRdFkk8h6QiSj7-297" value="" style="rounded=0;whiteSpace=wrap;html=1;fillColor=#000000;strokeColor=none;" vertex="1" parent="xy4yI9VRdFkk8h6QiSj7-51">
          <mxGeometry x="278.5" width="1" height="40" as="geometry" />
        </mxCell>
        <mxCell id="xy4yI9VRdFkk8h6QiSj7-298" value="" style="rounded=0;whiteSpace=wrap;html=1;fillColor=#000000;strokeColor=none;" vertex="1" parent="xy4yI9VRdFkk8h6QiSj7-51">
          <mxGeometry x="279.5" width="1" height="40" as="geometry" />
        </mxCell>
        <mxCell id="xy4yI9VRdFkk8h6QiSj7-299" value="" style="rounded=0;whiteSpace=wrap;html=1;fillColor=#000000;strokeColor=none;" vertex="1" parent="xy4yI9VRdFkk8h6QiSj7-51">
          <mxGeometry x="283.5" width="1" height="40" as="geometry" />
        </mxCell>
        <mxCell id="xy4yI9VRdFkk8h6QiSj7-300" value="" style="rounded=0;whiteSpace=wrap;html=1;fillColor=#000000;strokeColor=none;" vertex="1" parent="xy4yI9VRdFkk8h6QiSj7-51">
          <mxGeometry x="293.5" width="1" height="40" as="geometry" />
        </mxCell>
        <mxCell id="xy4yI9VRdFkk8h6QiSj7-301" value="&lt;font color=&quot;#3333ff&quot;&gt;11111111111&lt;/font&gt;&lt;font color=&quot;#ff3333&quot;&gt;2&lt;/font&gt;" style="text;strokeColor=none;fillColor=none;html=1;fontSize=12;fontStyle=1;verticalAlign=middle;align=center;" vertex="1" parent="1">
          <mxGeometry x="350" y="132" width="79.75" height="10" as="geometry" />
        </mxCell>
        <mxCell id="xy4yI9VRdFkk8h6QiSj7-302" value="" style="rounded=1;whiteSpace=wrap;html=1;fillStyle=cross-hatch;fillColor=#333333;" vertex="1" parent="1">
          <mxGeometry x="107.5" y="160" width="305" height="170" as="geometry" />
        </mxCell>
        <mxCell id="xy4yI9VRdFkk8h6QiSj7-303" value="&lt;font style=&quot;font-size: 14px;&quot; color=&quot;#3333ff&quot;&gt;11111111111&lt;/font&gt;&lt;font style=&quot;font-size: 14px;&quot; color=&quot;#ff00ff&quot;&gt;0003333333333333333&lt;/font&gt;" style="text;strokeColor=none;fillColor=none;html=1;fontSize=14;fontStyle=1;verticalAlign=middle;align=center;" vertex="1" parent="1">
          <mxGeometry x="100" y="453" width="320" height="10" as="geometry" />
        </mxCell>
        <mxCell id="xy4yI9VRdFkk8h6QiSj7-304" value="" style="endArrow=classic;html=1;rounded=0;exitX=0;exitY=1;exitDx=0;exitDy=0;exitPerimeter=0;" edge="1" parent="1" source="xy4yI9VRdFkk8h6QiSj7-305">
          <mxGeometry width="50" height="50" relative="1" as="geometry">
            <mxPoint x="490" y="70" as="sourcePoint" />
            <mxPoint x="430.5" y="100" as="targetPoint" />
          </mxGeometry>
        </mxCell>
        <mxCell id="xy4yI9VRdFkk8h6QiSj7-305" value="UPC barcode&lt;div&gt;&lt;font style=&quot;font-size: 10px;&quot;&gt;11-digit + 1 check digit&lt;/font&gt;&lt;/div&gt;" style="shape=note;size=20;whiteSpace=wrap;html=1;" vertex="1" parent="1">
          <mxGeometry x="468" y="40" width="150" height="40" as="geometry" />
        </mxCell>
        <mxCell id="xy4yI9VRdFkk8h6QiSj7-306" value="" style="endArrow=classic;html=1;rounded=0;exitX=0;exitY=1;exitDx=0;exitDy=0;exitPerimeter=0;entryX=1;entryY=0.5;entryDx=0;entryDy=0;" edge="1" parent="1" source="xy4yI9VRdFkk8h6QiSj7-307" target="xy4yI9VRdFkk8h6QiSj7-302">
          <mxGeometry width="50" height="50" relative="1" as="geometry">
            <mxPoint x="472" y="230" as="sourcePoint" />
            <mxPoint x="412.5" y="260" as="targetPoint" />
          </mxGeometry>
        </mxCell>
        <mxCell id="xy4yI9VRdFkk8h6QiSj7-307" value="Plastic card&amp;nbsp;&lt;div&gt;&lt;font style=&quot;font-size: 10px;&quot;&gt;(optional)&lt;/font&gt;&lt;/div&gt;" style="shape=note;size=20;whiteSpace=wrap;html=1;" vertex="1" parent="1">
          <mxGeometry x="467.5" y="190" width="148" height="40" as="geometry" />
        </mxCell>
        <mxCell id="xy4yI9VRdFkk8h6QiSj7-308" value="" style="endArrow=classic;html=1;rounded=0;entryX=1;entryY=0.5;entryDx=0;entryDy=0;exitX=0;exitY=1;exitDx=0;exitDy=0;exitPerimeter=0;" edge="1" parent="1" source="xy4yI9VRdFkk8h6QiSj7-309" target="xy4yI9VRdFkk8h6QiSj7-52">
          <mxGeometry width="50" height="50" relative="1" as="geometry">
            <mxPoint x="470" y="370" as="sourcePoint" />
            <mxPoint x="420" y="400" as="targetPoint" />
          </mxGeometry>
        </mxCell>
        <mxCell id="xy4yI9VRdFkk8h6QiSj7-309" value="Activation barcode&lt;div&gt;&lt;font style=&quot;font-size: 10px;&quot;&gt;11-digit UPC + 19-digit PAN&lt;/font&gt;&lt;/div&gt;" style="shape=note;size=20;whiteSpace=wrap;html=1;" vertex="1" parent="1">
          <mxGeometry x="468" y="370" width="150.5" height="40" as="geometry" />
        </mxCell>
        <mxCell id="xy4yI9VRdFkk8h6QiSj7-310" value="" style="group" connectable="0" vertex="1" parent="1">
          <mxGeometry x="200" y="80" width="120" height="50" as="geometry" />
        </mxCell>
        <mxCell id="xy4yI9VRdFkk8h6QiSj7-311" value="" style="rounded=1;whiteSpace=wrap;html=1;strokeColor=none;" vertex="1" parent="xy4yI9VRdFkk8h6QiSj7-310">
          <mxGeometry y="20" width="120" height="30" as="geometry" />
        </mxCell>
        <mxCell id="xy4yI9VRdFkk8h6QiSj7-312" value="" style="ellipse;whiteSpace=wrap;html=1;aspect=fixed;strokeColor=none;" vertex="1" parent="xy4yI9VRdFkk8h6QiSj7-310">
          <mxGeometry x="40" width="40" height="40" as="geometry" />
        </mxCell>
        <mxCell id="xy4yI9VRdFkk8h6QiSj7-313" value="" style="rounded=0;whiteSpace=wrap;html=1;fillStyle=dashed;fillColor=#000000;gradientColor=none;strokeWidth=1;perimeterSpacing=0;glass=0;shadow=0;" vertex="1" parent="1">
          <mxGeometry x="109" y="350" width="305" height="30" as="geometry" />
        </mxCell>
        <mxCell id="xy4yI9VRdFkk8h6QiSj7-316" value="" style="endArrow=classic;html=1;rounded=0;entryX=1;entryY=0.25;entryDx=0;entryDy=0;exitX=0;exitY=1;exitDx=0;exitDy=0;exitPerimeter=0;" edge="1" parent="1" source="xy4yI9VRdFkk8h6QiSj7-317" target="xy4yI9VRdFkk8h6QiSj7-313">
          <mxGeometry width="50" height="50" relative="1" as="geometry">
            <mxPoint x="470" y="300" as="sourcePoint" />
            <mxPoint x="420" y="360" as="targetPoint" />
          </mxGeometry>
        </mxCell>
        <mxCell id="xy4yI9VRdFkk8h6QiSj7-317" value="Redemption code&lt;div&gt;&lt;span style=&quot;font-size: 10px;&quot;&gt;(scratch panel)&lt;/span&gt;&lt;/div&gt;" style="shape=note;size=20;whiteSpace=wrap;html=1;" vertex="1" parent="1">
          <mxGeometry x="465" y="290" width="150.5" height="40" as="geometry" />
        </mxCell>
      </root>
    </mxGraphModel>
  </diagram>
</mxfile>
